<svg width="16" height="14" viewBox="0 0 16 14" fill="none" xmlns="http://www.w3.org/2000/svg">
<path d="M15 3.5C15 3.22386 14.7761 3 14.5 3H12.95C12.7 1.85 11.7 1 10.5 1C9.3 1 8.3 1.85 8.05 3H1.5C1.22386 3 1 3.22386 1 3.5C1 3.77614 1.22386 4 1.5 4H8.05C8.3 5.15 9.3 6 10.5 6C11.7 6 12.7 5.15 12.95 4H14.5C14.7761 4 15 3.77614 15 3.5ZM10.5 5C9.65 5 9 4.35 9 3.5C9 2.65 9.65 2 10.5 2C11.35 2 12 2.65 12 3.5C12 4.35 11.35 5 10.5 5ZM1 10.5C1 10.7761 1.22386 11 1.5 11H3.05C3.3 12.15 4.3 13 5.5 13C6.7 13 7.7 12.15 7.95 11H14.5C14.7761 11 15 10.7761 15 10.5C15 10.2239 14.7761 10 14.5 10H7.95C7.7 8.85 6.7 8 5.5 8C4.3 8 3.3 8.85 3.05 10H1.5C1.22386 10 1 10.2239 1 10.5ZM5.5 9C6.35 9 7 9.65 7 10.5C7 11.35 6.35 12 5.5 12C4.65 12 4 11.35 4 10.5C4 9.65 4.65 9 5.5 9Z" fill="#222222" stroke="#222222" stroke-width="0.3"/>
</svg>
