<svg width="22" height="22" viewBox="0 0 22 22" fill="none" xmlns="http://www.w3.org/2000/svg">
<circle cx="11" cy="11" r="11" fill="#08A835"/>
<path d="M15.7955 7H14.5929C14.3314 7 14.0826 7.12328 13.9288 7.33461L9.89789 12.8192L8.07219 10.3336C7.91833 10.1247 7.67217 9.99894 7.40806 9.99894H6.20546C6.03879 9.99894 5.94135 10.1851 6.03879 10.3185L9.23376 14.6659C9.30924 14.7693 9.40874 14.8535 9.52401 14.9116C9.63928 14.9697 9.76701 15 9.8966 15C10.0262 15 10.1539 14.9697 10.2692 14.9116C10.3845 14.8535 10.484 14.7693 10.5594 14.6659L15.9596 7.31952C16.0596 7.18618 15.9622 7 15.7955 7Z" fill="white"/>
</svg>
