<svg width="22" height="22" viewBox="0 0 22 22" fill="none" xmlns="http://www.w3.org/2000/svg">
<circle cx="11" cy="11" r="11" fill="#F72C00"/>
<path d="M11.3983 14.3475C10.6526 14.3475 10.0274 14.9523 10.0274 15.6738C10.0274 16.3952 10.6526 17 11.3983 17C12.1167 17 12.7692 16.3952 12.7363 15.7056C12.7692 14.947 12.1496 14.3475 11.3983 14.3475Z" fill="white"/>
<path d="M11.0583 5.03744C10.4058 5.21781 10 5.79074 10 6.48568C10.0329 6.90477 10.0603 7.32916 10.0932 7.74825C10.1864 9.34502 10.2797 10.91 10.3729 12.5067C10.4058 13.0478 10.839 13.4404 11.3983 13.4404C11.9577 13.4404 12.3963 13.0213 12.4238 12.4749C12.4238 12.146 12.4238 11.8436 12.4567 11.5094C12.517 10.4856 12.5828 9.46173 12.6431 8.43788C12.676 7.77477 12.7363 7.11166 12.7692 6.44855C12.7692 6.20982 12.7363 5.99763 12.6431 5.78543C12.3634 5.19128 11.7109 4.8889 11.0583 5.03744Z" fill="white"/>
</svg>
