<svg width="12" height="12" viewBox="0 0 12 12" fill="none" xmlns="http://www.w3.org/2000/svg">
<circle cx="6" cy="6" r="6" fill="#FB5632"/>
<path d="M6.10932 8.39118C5.59398 8.39118 5.16201 8.82315 5.16201 9.33848C5.16201 9.85381 5.59398 10.2858 6.10932 10.2858C6.6057 10.2858 7.05662 9.85381 7.03389 9.36122C7.05662 8.81936 6.62844 8.39118 6.10932 8.39118Z" fill="white"/>
<path d="M5.87438 1.7411C5.42347 1.86993 5.14307 2.27917 5.14307 2.77556C5.1658 3.0749 5.18475 3.37804 5.20748 3.67739C5.2719 4.81794 5.33632 5.93576 5.40073 7.07632C5.42347 7.46282 5.72282 7.74322 6.10932 7.74322C6.49582 7.74322 6.79895 7.44387 6.8179 7.05358C6.8179 6.81865 6.8179 6.60266 6.84064 6.36394C6.88232 5.63262 6.92779 4.90131 6.96947 4.16999C6.9922 3.69633 7.03389 3.22268 7.05662 2.74903C7.05662 2.57852 7.03389 2.42695 6.96947 2.27538C6.77622 1.85099 6.3253 1.635 5.87438 1.7411Z" fill="white"/>
</svg>
