<svg width="20" height="20" viewBox="0 0 20 20" fill="none" xmlns="http://www.w3.org/2000/svg">
<circle cx="10" cy="10" r="10" fill="#E84142"/>
<path d="M12.9874 11.1361C13.2808 10.6617 13.7543 10.6617 14.0477 11.1361L15.8748 14.1386C16.1682 14.613 15.9281 15 15.3413 15H11.6604C11.0803 15 10.8402 14.613 11.1269 14.1386L12.9874 11.1361ZM9.4532 5.35581C9.7466 4.8814 10.2134 4.8814 10.5068 5.35581L10.9136 6.04245L11.8738 7.62172C12.1072 8.07116 12.1072 8.60175 11.8738 9.05119L8.653 14.2759C8.3596 14.7004 7.87281 14.9688 7.33268 15H4.65869C4.07188 15 3.83182 14.6192 4.12522 14.1386L9.4532 5.35581Z" fill="white"/>
</svg>
