<svg width="20" height="20" viewBox="0 0 20 20" fill="none" xmlns="http://www.w3.org/2000/svg">
<circle cx="10" cy="10" r="10" fill="#0033AD"/>
<g clip-path="url(#clip0_729_1273)">
<path fill-rule="evenodd" clip-rule="evenodd" d="M9.96812 4.65903C10.0338 4.66274 10.099 4.64705 10.1557 4.61394C10.2124 4.58084 10.2578 4.5318 10.2864 4.47304C10.315 4.41428 10.3253 4.34844 10.3162 4.28384C10.307 4.21924 10.2787 4.15879 10.235 4.11013C10.1912 4.06147 10.1338 4.02679 10.0701 4.01048C10.0065 3.99416 9.93936 3.99695 9.8773 4.01849C9.81523 4.04002 9.761 4.07933 9.72145 4.13145C9.68191 4.18357 9.65884 4.24616 9.65515 4.31129C9.65021 4.39857 9.6804 4.48423 9.73909 4.54943C9.79777 4.61464 9.88015 4.65406 9.96812 4.65903ZM12.8599 4.82228C12.8082 4.82274 12.7575 4.80797 12.7143 4.77986C12.6563 4.74219 12.6159 4.68326 12.6017 4.61601C12.5876 4.54876 12.6009 4.47868 12.6388 4.42117C12.6671 4.37823 12.7075 4.34459 12.7551 4.32449C12.8027 4.30438 12.8552 4.29873 12.906 4.30825C12.9568 4.31776 13.0036 4.34201 13.0405 4.37793C13.0774 4.41384 13.1028 4.45982 13.1133 4.51003C13.1239 4.56024 13.1192 4.61243 13.0999 4.66C13.0805 4.70757 13.0474 4.74838 13.0047 4.77727C12.962 4.80615 12.9116 4.82182 12.8599 4.82228ZM7.23507 4.80698C7.28094 4.78361 7.31881 4.7473 7.34392 4.70262C7.36904 4.65794 7.38027 4.60689 7.3762 4.55589C7.37213 4.50489 7.35295 4.45623 7.32107 4.41602C7.28919 4.37582 7.24603 4.34587 7.19703 4.32995C7.14802 4.31403 7.09537 4.31284 7.04569 4.32655C6.99601 4.34025 6.95153 4.36823 6.91785 4.40696C6.88416 4.44569 6.86278 4.49344 6.85639 4.5442C6.84999 4.59497 6.85888 4.64647 6.88193 4.69223C6.89742 4.72286 6.91887 4.75015 6.94504 4.77252C6.97122 4.79488 7.00159 4.81189 7.03442 4.82256C7.06725 4.83322 7.10188 4.83734 7.13631 4.83466C7.17075 4.83199 7.20431 4.82258 7.23507 4.80698ZM7.491 10.0387C7.34831 9.87974 7.27506 9.67106 7.28736 9.45852L7.28516 9.45896C7.29421 9.3027 7.34918 9.15249 7.44328 9.02687C7.53738 8.90125 7.6665 8.80571 7.8147 8.75206C7.96289 8.6984 8.12368 8.68897 8.27722 8.72493C8.43076 8.76089 8.57032 8.84066 8.67869 8.95441C8.78705 9.06815 8.85948 9.21089 8.88702 9.365C8.91457 9.51912 8.89603 9.67786 8.83369 9.82164C8.77136 9.96542 8.66795 10.0879 8.53624 10.1741C8.40453 10.2602 8.25028 10.3062 8.09252 10.3064H8.04838C7.83417 10.294 7.6337 10.1977 7.491 10.0387ZM4.12833 9.29068C4.17276 9.26468 4.22396 9.25233 4.27546 9.25519C4.30972 9.25704 4.34327 9.26558 4.37419 9.28033C4.40511 9.29508 4.43279 9.31574 4.45564 9.34114C4.47849 9.36653 4.49605 9.39615 4.50733 9.4283C4.5186 9.46045 4.52336 9.4945 4.52133 9.52848C4.51837 9.57957 4.50021 9.62864 4.46915 9.6695C4.43809 9.71035 4.39551 9.74115 4.34681 9.75801C4.29811 9.77486 4.24546 9.77702 4.19553 9.7642C4.14559 9.75138 4.10061 9.72416 4.06626 9.68598C4.03191 9.6478 4.00974 9.60038 4.00255 9.5497C3.99536 9.49903 4.00347 9.44738 4.02586 9.40127C4.04825 9.35517 4.08391 9.31669 4.12833 9.29068ZM8.22561 6.06471C8.18633 6.13362 8.12735 6.18942 8.05612 6.22507C8.00879 6.24876 7.95722 6.26296 7.90436 6.26687C7.8515 6.27077 7.79838 6.2643 7.74804 6.24783C7.6977 6.23136 7.65112 6.2052 7.61097 6.17087C7.57083 6.13653 7.53789 6.09468 7.51405 6.0477C7.47817 5.977 7.46422 5.89733 7.47397 5.81877C7.48372 5.7402 7.51673 5.66627 7.56882 5.60631C7.62092 5.54636 7.68976 5.50307 7.76664 5.48193C7.84353 5.46079 7.92501 5.46274 8.00078 5.48753C8.07655 5.51232 8.14321 5.55885 8.19233 5.62122C8.24145 5.6836 8.27083 5.75902 8.27675 5.83796C8.28268 5.9169 8.26488 5.99581 8.22561 6.06471ZM5.29802 7.2005C5.35296 7.23635 5.41739 7.25522 5.48315 7.25473C5.54891 7.25424 5.61304 7.23441 5.66744 7.19774C5.72183 7.16108 5.76404 7.10923 5.78873 7.04876C5.81342 6.98829 5.81947 6.92191 5.80612 6.85802C5.79277 6.79413 5.76062 6.73561 5.71374 6.68986C5.66686 6.64411 5.60735 6.61318 5.54275 6.60099C5.47815 6.5888 5.41135 6.59589 5.35082 6.62138C5.29028 6.64686 5.23872 6.68959 5.20267 6.74415C5.15438 6.81723 5.1373 6.90633 5.15517 6.9919C5.17305 7.07746 5.22443 7.15249 5.29802 7.2005ZM5.56226 9.1644C5.63099 9.12422 5.71019 9.10515 5.78984 9.10961C5.8967 9.1157 5.99676 9.16364 6.06802 9.24289C6.13929 9.32213 6.17593 9.4262 6.1699 9.53223C6.16533 9.61125 6.13724 9.68716 6.08919 9.75034C6.04114 9.81353 5.97529 9.86117 5.89996 9.88723C5.82463 9.91329 5.7432 9.91661 5.66597 9.89677C5.58874 9.87693 5.51917 9.83482 5.46606 9.77576C5.41294 9.7167 5.37867 9.64334 5.36757 9.56496C5.35647 9.48657 5.36904 9.40668 5.4037 9.33539C5.43835 9.26409 5.49353 9.20459 5.56226 9.1644ZM5.34268 11.8009C5.28402 11.8303 5.23546 11.8763 5.20315 11.9331C5.17084 11.9899 5.15623 12.0549 5.16115 12.1199C5.16608 12.185 5.19033 12.2471 5.23083 12.2984C5.27134 12.3498 5.32628 12.3881 5.38872 12.4085C5.45115 12.4289 5.51827 12.4304 5.5816 12.413C5.64493 12.3955 5.70162 12.3598 5.74451 12.3104C5.78739 12.261 5.81454 12.2 5.82253 12.1353C5.83053 12.0706 5.81899 12.0049 5.7894 11.9467C5.76973 11.908 5.74258 11.8736 5.70948 11.8453C5.67638 11.817 5.63799 11.7955 5.5965 11.782C5.55502 11.7684 5.51125 11.7631 5.46769 11.7664C5.42414 11.7696 5.38166 11.7813 5.34268 11.8009ZM7.17364 8.3595C7.0797 8.36033 6.98763 8.33351 6.90907 8.28242C6.85684 8.24854 6.81187 8.20476 6.77672 8.15361C6.74157 8.10245 6.71693 8.04492 6.70422 7.98431C6.69151 7.92369 6.69098 7.86119 6.70265 7.80037C6.71431 7.73955 6.73796 7.68161 6.77223 7.62987C6.82374 7.55193 6.89738 7.4909 6.98385 7.45449C7.07032 7.41808 7.16573 7.40793 7.25802 7.42531C7.3503 7.4427 7.43532 7.48684 7.50232 7.55216C7.56932 7.61749 7.6153 7.70105 7.63443 7.79229C7.65356 7.88354 7.645 7.97836 7.60982 8.06477C7.57464 8.15119 7.51442 8.22531 7.43678 8.27777C7.35914 8.33023 7.26757 8.35868 7.17364 8.3595ZM11.8867 6.19334C11.9535 6.23663 12.0319 6.25927 12.1117 6.25841C12.1916 6.25754 12.2694 6.2332 12.3353 6.18847C12.4013 6.14373 12.4523 6.08061 12.4821 6.00708C12.5119 5.93355 12.519 5.85292 12.5026 5.77537C12.4862 5.69782 12.447 5.62683 12.3899 5.57139C12.3329 5.51595 12.2605 5.47854 12.182 5.46388C12.1035 5.44923 12.0224 5.45799 11.9489 5.48906C11.8755 5.52014 11.8129 5.57212 11.7692 5.63845C11.7401 5.68251 11.7201 5.73183 11.7102 5.78359C11.7004 5.83535 11.7009 5.88853 11.7119 5.94008C11.7228 5.99162 11.7438 6.04053 11.7738 6.08399C11.8038 6.12745 11.8422 6.16461 11.8867 6.19334ZM11.9496 8.6956C11.8437 8.68956 11.7376 8.70429 11.6374 8.73893C11.5372 8.77357 11.4448 8.82746 11.3656 8.89751C11.2056 9.03898 11.1088 9.23771 11.0965 9.44998C11.0843 9.66225 11.1575 9.87067 11.3 10.0294C11.4426 10.1881 11.6429 10.2841 11.8569 10.2963H11.9037C12.0595 10.2963 12.2121 10.2515 12.3428 10.1673C12.4736 10.0832 12.577 9.96331 12.6407 9.82216C12.7043 9.68101 12.7254 9.5246 12.7015 9.3718C12.6776 9.219 12.6096 9.07634 12.5058 8.961C12.4355 8.88235 12.3501 8.81837 12.2546 8.7728C12.1591 8.72724 12.0554 8.70099 11.9496 8.6956ZM8.61792 8.54915C8.49033 8.47124 8.3872 8.35953 8.32014 8.22661C8.25847 8.10445 8.22928 7.96869 8.23534 7.8322C8.2414 7.69571 8.2825 7.56302 8.35476 7.44672C8.42701 7.33042 8.52802 7.23436 8.64819 7.16765C8.76837 7.10095 8.90372 7.06582 9.04143 7.06558C9.19091 7.06488 9.33765 7.10547 9.46519 7.18282C9.59274 7.26017 9.69606 7.37122 9.76359 7.50354C9.82598 7.62581 9.85575 7.7619 9.85005 7.89882C9.84434 8.03575 9.80337 8.16894 9.73103 8.28569C9.6587 8.40243 9.55741 8.49884 9.43684 8.5657C9.31627 8.63257 9.18044 8.66766 9.04231 8.66763C8.89249 8.6681 8.74551 8.62707 8.61792 8.54915ZM14.6563 7.19975C14.7149 7.17038 14.7635 7.12441 14.7959 7.06765C14.8282 7.01089 14.8429 6.94589 14.838 6.88086C14.8331 6.81584 14.8089 6.75371 14.7685 6.70232C14.728 6.65094 14.6731 6.61261 14.6107 6.59217C14.5483 6.57174 14.4812 6.57012 14.4178 6.58751C14.3545 6.60491 14.2978 6.64054 14.2549 6.68991C14.2119 6.73928 14.1847 6.80017 14.1766 6.86488C14.1686 6.92959 14.18 6.99522 14.2096 7.05348C14.2493 7.13161 14.3186 7.1909 14.4024 7.21833C14.4862 7.24576 14.5775 7.23908 14.6563 7.19975ZM12.4077 7.64341C12.454 7.56231 12.5235 7.49664 12.6074 7.45472C12.6631 7.42682 12.7238 7.4101 12.786 7.4055C12.8482 7.40091 12.9107 7.40853 12.97 7.42793C13.0292 7.44734 13.084 7.47814 13.1313 7.51858C13.1785 7.55903 13.2172 7.60831 13.2452 7.66362C13.2875 7.74687 13.3039 7.84067 13.2925 7.93317C13.281 8.02568 13.2421 8.11273 13.1808 8.18331C13.1194 8.2539 13.0384 8.30486 12.9478 8.32974C12.8573 8.35461 12.7614 8.3523 12.6722 8.32308C12.5829 8.29387 12.5045 8.23906 12.4467 8.1656C12.3889 8.09214 12.3543 8.00332 12.3474 7.91037C12.3404 7.81742 12.3614 7.72452 12.4077 7.64341ZM10.2307 6.66984C10.1498 6.71717 10.0566 6.73965 9.96283 6.73444C9.83698 6.72732 9.71914 6.67091 9.63521 6.57762C9.55127 6.48432 9.50811 6.36177 9.51522 6.23692C9.52061 6.1439 9.55366 6.05454 9.61022 5.98016C9.66677 5.90577 9.74428 5.84969 9.83295 5.81899C9.92163 5.7883 10.0175 5.78438 10.1084 5.80772C10.1993 5.83106 10.2812 5.88062 10.3438 5.95013C10.4063 6.01964 10.4467 6.10599 10.4597 6.19825C10.4728 6.29052 10.4581 6.38456 10.4173 6.4685C10.3765 6.55244 10.3116 6.6225 10.2307 6.66984ZM7.39333 11.5449C7.47722 11.503 7.54668 11.4373 7.59293 11.3561C7.63918 11.275 7.66014 11.1821 7.65316 11.0891C7.64618 10.9962 7.61157 10.9074 7.55371 10.8339C7.49585 10.7605 7.41734 10.7057 7.32811 10.6766C7.23887 10.6474 7.14293 10.6451 7.05241 10.6701C6.96188 10.695 6.88085 10.746 6.81955 10.8167C6.75826 10.8873 6.71945 10.9744 6.70804 11.0669C6.69664 11.1594 6.71314 11.2532 6.75547 11.3365C6.81221 11.448 6.91128 11.5326 7.03089 11.5717C7.15051 11.6108 7.28087 11.6012 7.39333 11.5449ZM10.1411 7.92633C10.1265 7.74859 10.1721 7.5711 10.2706 7.42195C10.3442 7.3106 10.4446 7.21919 10.5628 7.15596C10.6809 7.09273 10.813 7.05967 10.9473 7.05976C11.127 7.05999 11.3015 7.11968 11.4432 7.22939C11.5849 7.3391 11.6857 7.49256 11.7296 7.66549C11.7735 7.83841 11.758 8.02092 11.6856 8.18413C11.6132 8.34733 11.4879 8.48192 11.3298 8.56659C11.1716 8.65125 10.9895 8.68116 10.8122 8.65157C10.635 8.62199 10.4727 8.5346 10.3512 8.40324C10.2296 8.27188 10.1557 8.10406 10.1411 7.92633ZM11.675 10.7737C11.6102 10.6464 11.5124 10.5385 11.3917 10.4612C11.2709 10.3839 11.1315 10.3399 10.9879 10.3339C10.8443 10.3278 10.7017 10.3599 10.5747 10.4268C10.4478 10.4937 10.3412 10.593 10.2658 10.7144C10.1904 10.8359 10.1491 10.9751 10.1461 11.1176C10.143 11.2602 10.1784 11.401 10.2485 11.5255C10.3186 11.65 10.4209 11.7537 10.5448 11.8259C10.6688 11.898 10.8099 11.9361 10.9537 11.9361C11.0801 11.9352 11.2046 11.9052 11.3174 11.8485C11.5082 11.7527 11.6529 11.5858 11.7199 11.3844C11.7869 11.183 11.7708 10.9634 11.675 10.7737ZM12.8229 10.6406C12.9168 10.6398 13.0088 10.6667 13.0874 10.7178C13.1925 10.7866 13.2659 10.8939 13.2914 11.0162C13.317 11.1385 13.2927 11.2659 13.2238 11.3704C13.1722 11.4483 13.0985 11.5093 13.012 11.5457C12.9255 11.582 12.8301 11.5921 12.7378 11.5747C12.6456 11.5573 12.5606 11.5131 12.4936 11.4477C12.4266 11.3823 12.3807 11.2987 12.3616 11.2075C12.3426 11.1162 12.3512 11.0214 12.3864 10.935C12.4217 10.8486 12.482 10.7745 12.5596 10.7221C12.6373 10.6697 12.7289 10.6413 12.8229 10.6406ZM14.6328 9.51389C14.6373 9.43486 14.6181 9.35629 14.5776 9.2881C14.5371 9.21991 14.4771 9.16516 14.4052 9.13078C14.3334 9.0964 14.2529 9.08393 14.1739 9.09494C14.0949 9.10595 14.0209 9.13995 13.9614 9.19265C13.9019 9.24535 13.8594 9.31437 13.8394 9.39099C13.8194 9.46762 13.8228 9.54841 13.849 9.62315C13.8753 9.69788 13.9233 9.76322 13.987 9.81089C14.0507 9.85856 14.1272 9.88643 14.2068 9.89097C14.3137 9.89695 14.4186 9.86059 14.4985 9.78989C14.5784 9.71918 14.6267 9.61991 14.6328 9.51389ZM15.6062 9.26416C15.6508 9.23817 15.7021 9.22587 15.7537 9.22881C15.8228 9.23288 15.8875 9.26397 15.9336 9.31528C15.9797 9.36658 16.0034 9.43392 15.9996 9.50254C15.9966 9.55373 15.9784 9.6029 15.9473 9.64384C15.9161 9.68477 15.8735 9.71562 15.8247 9.73249C15.7758 9.74936 15.7231 9.75149 15.6731 9.73862C15.623 9.72574 15.578 9.69844 15.5436 9.66015C15.5092 9.62187 15.487 9.57433 15.4799 9.52355C15.4727 9.47276 15.4809 9.42101 15.5034 9.37484C15.5259 9.32867 15.5617 9.29015 15.6062 9.26416ZM14.7018 11.7995C14.6468 11.7637 14.5824 11.745 14.5166 11.7456C14.4509 11.7462 14.3868 11.7661 14.3325 11.8028C14.2782 11.8395 14.2361 11.8914 14.2114 11.9519C14.1868 12.0123 14.1808 12.0787 14.1942 12.1425C14.2076 12.2064 14.2398 12.2648 14.2867 12.3106C14.3335 12.3563 14.393 12.3872 14.4576 12.3993C14.5222 12.4115 14.5889 12.4044 14.6494 12.3789C14.71 12.3535 14.7615 12.3108 14.7976 12.2563C14.8215 12.22 14.838 12.1795 14.8462 12.1369C14.8543 12.0943 14.854 12.0506 14.8451 12.0082C14.8362 11.9658 14.8189 11.9255 14.7944 11.8897C14.7698 11.8539 14.7383 11.8232 14.7018 11.7995ZM7.14033 14.1777C7.192 14.1773 7.24265 14.1921 7.28585 14.2202C7.31455 14.2389 7.33926 14.263 7.35857 14.2912C7.37788 14.3194 7.3914 14.351 7.39837 14.3844C7.40534 14.4177 7.40561 14.4521 7.39918 14.4856C7.39276 14.519 7.37974 14.5509 7.3609 14.5794C7.33252 14.6222 7.29198 14.6558 7.24439 14.6757C7.1968 14.6957 7.14431 14.7013 7.09354 14.6917C7.04278 14.6821 6.99602 14.6578 6.95919 14.6218C6.92236 14.5858 6.8971 14.5398 6.88661 14.4896C6.87611 14.4394 6.88086 14.3873 6.90025 14.3397C6.91964 14.2922 6.95279 14.2514 6.99553 14.2226C7.03826 14.1938 7.08865 14.1782 7.14033 14.1777ZM12.7599 14.193C12.7137 14.2161 12.6755 14.2523 12.65 14.2969C12.6246 14.3415 12.613 14.3926 12.6169 14.4438C12.6207 14.4949 12.6397 14.5438 12.6716 14.5842C12.7034 14.6246 12.7466 14.6547 12.7957 14.6708C12.8448 14.6868 12.8976 14.6881 12.9474 14.6744C12.9972 14.6607 13.0418 14.6326 13.0755 14.5937C13.1092 14.5549 13.1306 14.507 13.1369 14.4561C13.1431 14.4052 13.1341 14.3536 13.1108 14.3078C13.0954 14.2773 13.0741 14.2502 13.0481 14.228C13.0221 14.2057 12.9919 14.1888 12.9593 14.1781C12.9267 14.1675 12.8923 14.1633 12.8581 14.1659C12.8239 14.1684 12.7905 14.1777 12.7599 14.193ZM9.85488 11.0719C9.86949 11.2496 9.82393 11.4271 9.72541 11.5763C9.65214 11.6879 9.55186 11.7795 9.43373 11.8428C9.31561 11.9061 9.18339 11.939 9.04915 11.9385C8.8694 11.9384 8.69483 11.8788 8.55306 11.7691C8.4113 11.6595 8.31046 11.506 8.26649 11.3331C8.22251 11.1602 8.23793 10.9776 8.3103 10.8144C8.38266 10.6511 8.50784 10.5165 8.66602 10.4318C8.8242 10.3471 9.00634 10.3171 9.18361 10.3467C9.36087 10.3762 9.52314 10.4636 9.64473 10.5949C9.76631 10.7263 9.84026 10.8941 9.85488 11.0719ZM8.11182 12.8067C8.04506 12.7633 7.96685 12.7406 7.88707 12.7414C7.8073 12.7421 7.72954 12.7663 7.66363 12.8109C7.59772 12.8555 7.54661 12.9185 7.51677 12.9919C7.48693 13.0653 7.4797 13.1459 7.49598 13.2234C7.51227 13.3008 7.55135 13.3718 7.60827 13.4273C7.66519 13.4827 7.73741 13.5202 7.8158 13.5349C7.89418 13.5497 7.97521 13.541 8.04864 13.5101C8.12208 13.4791 8.18462 13.4273 8.22836 13.3611C8.28695 13.2722 8.30758 13.1639 8.28573 13.06C8.26388 12.956 8.20133 12.8649 8.11182 12.8067ZM9.80986 14.3861C9.8665 14.353 9.93176 14.3373 9.99738 14.341C10.041 14.3435 10.0837 14.3545 10.123 14.3733C10.1623 14.3921 10.1975 14.4185 10.2266 14.4508C10.2556 14.4831 10.278 14.5208 10.2924 14.5617C10.3068 14.6026 10.3129 14.646 10.3104 14.6892C10.3066 14.7543 10.2834 14.8169 10.2438 14.8689C10.2043 14.921 10.15 14.9602 10.0879 14.9817C10.0259 15.0032 9.95876 15.0059 9.89513 14.9895C9.8315 14.9732 9.77419 14.9385 9.73044 14.8898C9.68669 14.8411 9.65847 14.7807 9.64934 14.7161C9.64021 14.6515 9.65059 14.5857 9.67916 14.5269C9.70773 14.4682 9.75321 14.4192 9.80986 14.3861ZM9.99884 12.266C9.90499 12.2603 9.81156 12.2824 9.73038 12.3295C9.64921 12.3766 9.58394 12.4465 9.54284 12.5304C9.50174 12.6143 9.48666 12.7084 9.49952 12.8008C9.51237 12.8932 9.55258 12.9798 9.61505 13.0495C9.67752 13.1192 9.75943 13.1689 9.85042 13.1924C9.94142 13.2159 10.0374 13.2121 10.1262 13.1814C10.215 13.1508 10.2926 13.0946 10.3492 13.0202C10.4058 12.9457 10.4389 12.8562 10.4442 12.7631C10.4515 12.6386 10.4086 12.5164 10.3251 12.4232C10.2416 12.33 10.1243 12.2735 9.99884 12.266ZM11.771 12.9357C11.8102 12.8665 11.8691 12.8105 11.9404 12.7746C11.9876 12.7507 12.0391 12.7363 12.0919 12.7322C12.1447 12.728 12.1979 12.7343 12.2483 12.7506C12.2986 12.7668 12.3453 12.7928 12.3856 12.827C12.4258 12.8612 12.4589 12.9029 12.4829 12.9498C12.5192 13.0204 12.5336 13.1002 12.5243 13.1789C12.5149 13.2577 12.4822 13.3319 12.4303 13.3922C12.3784 13.4525 12.3096 13.4962 12.2327 13.5177C12.1558 13.5392 12.0741 13.5376 11.9981 13.513C11.9221 13.4885 11.8552 13.4421 11.8058 13.3798C11.7563 13.3175 11.7266 13.242 11.7204 13.163C11.7143 13.0839 11.7319 13.0048 11.771 12.9357Z" fill="white"/>
</g>
<defs>
<clipPath id="clip0_729_1273">
<rect width="12" height="12" fill="white" transform="translate(4 4)"/>
</clipPath>
</defs>
</svg>
