<svg width="12" height="15" viewBox="0 0 12 15" fill="none" xmlns="http://www.w3.org/2000/svg">
<path d="M11.4545 0H2.31818C2.24318 0 2.18182 0.0602679 2.18182 0.133929V1.07143C2.18182 1.14509 2.24318 1.20536 2.31818 1.20536H10.7727V12.7232C10.7727 12.7969 10.8341 12.8571 10.9091 12.8571H11.8636C11.9386 12.8571 12 12.7969 12 12.7232V0.535714C12 0.239397 11.7563 0 11.4545 0ZM9.27273 2.14286H0.545455C0.24375 2.14286 0 2.38225 0 2.67857V11.5631C0 11.7054 0.0579544 11.841 0.160227 11.9414L3.1142 14.8426C3.1517 14.8795 3.19432 14.9096 3.24034 14.9347V14.9665H3.31193C3.37159 14.9883 3.43466 15 3.49943 15H9.27273C9.57443 15 9.81818 14.7606 9.81818 14.4643V2.67857C9.81818 2.38225 9.57443 2.14286 9.27273 2.14286ZM3.23864 13.2623L1.77102 11.8192H3.23864V13.2623ZM8.59091 13.7946H4.32955V11.4174C4.32955 11.0474 4.02443 10.7478 3.64773 10.7478H1.22727V3.34821H8.59091V13.7946Z" fill="#D4D7DD"/>
</svg>
