<svg width="18" height="18" viewBox="0 0 18 18" fill="none" xmlns="http://www.w3.org/2000/svg">
<g clip-path="url(#clip0_306_302)">
<path d="M15.4282 0H4.66037C4.57197 0 4.49965 0.0723214 4.49965 0.160714V1.28571C4.49965 1.37411 4.57197 1.44643 4.66037 1.44643H14.6247V15.2679C14.6247 15.3562 14.697 15.4286 14.7854 15.4286H15.9104C15.9988 15.4286 16.0711 15.3562 16.0711 15.2679V0.642857C16.0711 0.287277 15.7838 0 15.4282 0ZM12.8568 2.57143H2.57108C2.2155 2.57143 1.92822 2.85871 1.92822 3.21429V13.8757C1.92822 14.0464 1.99653 14.2092 2.11706 14.3297L5.59854 17.8112C5.64273 17.8554 5.69296 17.8915 5.7472 17.9217V17.9598H5.83157C5.90188 17.9859 5.97621 18 6.05255 18H12.8568C13.2124 18 13.4997 17.7127 13.4997 17.3571V3.21429C13.4997 2.85871 13.2124 2.57143 12.8568 2.57143ZM5.74519 15.9147L4.0155 14.183H5.74519V15.9147ZM12.0532 16.5536H7.0309V13.7009C7.0309 13.2569 6.6713 12.8973 6.22733 12.8973H3.37465V4.01786H12.0532V16.5536Z" fill="#D4D7DD"/>
</g>
<defs>
<clipPath id="clip0_306_302">
<rect width="18" height="18" fill="white"/>
</clipPath>
</defs>
</svg>
