<svg width="22" height="22" viewBox="0 0 22 22" fill="none" xmlns="http://www.w3.org/2000/svg">
<circle cx="11" cy="11" r="10" fill="black"/>
<path fill-rule="evenodd" clip-rule="evenodd" d="M6.01085 6.5201L10.8997 8.55714C10.9639 8.58388 11.0361 8.58388 11.1003 8.55714L15.9892 6.5201C16.1156 6.46741 16.2613 6.52161 16.3226 6.64416L16.9724 7.94386C17.0343 8.06761 16.9887 8.21814 16.8686 8.28679L11.7604 11.2057L16.8686 14.1247C16.9887 14.1933 17.0343 14.3439 16.9724 14.4676L16.3226 15.7673C16.2613 15.8899 16.1156 15.9441 15.9892 15.8914L11.1003 13.8543C11.0361 13.8276 10.9639 13.8276 10.8997 13.8543L6.01085 15.8914C5.88438 15.9441 5.73869 15.8899 5.67742 15.7673L5.02756 14.4676C4.96569 14.3439 5.01127 14.1933 5.13139 14.1247L10.2396 11.2057L5.13139 8.28679C5.01127 8.21814 4.96569 8.06761 5.02756 7.94386L5.67742 6.64416C5.73869 6.52161 5.88438 6.46741 6.01085 6.5201Z" fill="#23F7DD"/>
</svg>
