<svg width="20" height="20" viewBox="0 0 20 20" fill="none" xmlns="http://www.w3.org/2000/svg">
<circle cx="10" cy="10" r="10" fill="#0A2336"/>
<g clip-path="url(#clip0_739_1540)">
<mask id="mask0_739_1540" style="mask-type:alpha" maskUnits="userSpaceOnUse" x="4" y="11" width="12" height="6">
<path d="M4.00003 11.823H15.9684V16.3921H4.00003V11.823Z" fill="white"/>
</mask>
<g mask="url(#mask0_739_1540)">
<path fill-rule="evenodd" clip-rule="evenodd" d="M9.97258 14.1485C9.55086 14.1485 9.15896 14.0601 8.83908 13.8928L5.3946 12.092L4.36246 12.7122C3.87185 13.0069 3.88042 13.4587 4.38157 13.7208L9.14561 16.2118C9.37699 16.3327 9.67281 16.3922 9.97258 16.3922C10.3226 16.3922 10.6778 16.3112 10.9421 16.1524L15.6059 13.3497C16.0965 13.0548 16.088 12.603 15.5868 12.3411L14.5964 11.823L11.2827 13.8145C10.9241 14.0298 10.4589 14.1485 9.97258 14.1485Z" fill="url(#paint0_linear_739_1540)"/>
</g>
<path fill-rule="evenodd" clip-rule="evenodd" d="M15.6174 9.35896L14.7904 8.92017L12.8646 10.0944L12.534 10.296L12.2035 10.4975L11.302 11.0473C10.9425 11.2667 10.4758 11.3873 9.98839 11.3873C9.56556 11.3873 9.17263 11.2974 8.85191 11.1273L7.81902 10.5793L7.47715 10.3981L7.13528 10.2167L5.2321 9.2068L4.36346 9.73653C3.87156 10.0365 3.87999 10.496 4.38247 10.7626L5.37569 11.2895L5.71756 11.4709L6.05927 11.6522L9.15924 13.2968C9.39107 13.4198 9.68783 13.4802 9.98839 13.4802C10.3392 13.4802 10.6954 13.3979 10.9603 13.2364L13.9406 11.4191L14.2713 11.2176L14.6018 11.0161L15.6366 10.3851C16.1285 10.0852 16.1199 9.62558 15.6174 9.35896Z" fill="url(#paint1_linear_739_1540)"/>
<path fill-rule="evenodd" clip-rule="evenodd" d="M15.6174 6.67029L10.8407 4.18034C10.6088 4.05935 10.3123 4 10.0115 4C9.66073 4 9.30448 4.08099 9.03961 4.23968L4.36346 7.04146C3.87156 7.33606 3.87999 7.78756 4.38247 8.04954L5.20947 8.48071L5.55134 8.65892L5.89321 8.83712L7.79638 9.8293L8.13826 10.0073L8.48013 10.1857L9.15924 10.5398C9.39107 10.6607 9.68783 10.72 9.98839 10.72C10.3392 10.72 10.6954 10.639 10.9603 10.4803L11.5198 10.1451L11.8504 9.94701L12.1809 9.74897L14.1067 8.59514L14.4373 8.3971L14.7678 8.19906L15.6366 7.67854C16.1285 7.38394 16.1199 6.93227 15.6174 6.67029Z" fill="url(#paint2_linear_739_1540)"/>
</g>
<defs>
<linearGradient id="paint0_linear_739_1540" x1="9.9842" y1="4.39854" x2="9.9842" y2="16.3922" gradientUnits="userSpaceOnUse">
<stop stop-color="#B3F9BA"/>
<stop offset="1" stop-color="#F6FB8C"/>
</linearGradient>
<linearGradient id="paint1_linear_739_1540" x1="10" y1="4.40798" x2="10" y2="16.1164" gradientUnits="userSpaceOnUse">
<stop stop-color="#B1FFBF"/>
<stop offset="1" stop-color="#FFF16D"/>
</linearGradient>
<linearGradient id="paint2_linear_739_1540" x1="10" y1="4" x2="10" y2="16.15" gradientUnits="userSpaceOnUse">
<stop stop-color="#B3F9BA"/>
<stop offset="1" stop-color="#F6FB8C"/>
</linearGradient>
<clipPath id="clip0_739_1540">
<rect width="12" height="12" fill="white" transform="translate(4 4)"/>
</clipPath>
</defs>
</svg>
