<svg width="12" height="13" viewBox="0 0 12 13" fill="none" xmlns="http://www.w3.org/2000/svg">
<path d="M6.2 0.5C9.40295 0.5 12 3.18661 12 6.5C12 9.81339 9.40295 12.5 6.2 12.5C2.99705 12.5 0.399999 9.81339 0.399999 6.5C0.399999 3.18661 2.99705 0.5 6.2 0.5ZM5.78571 9.39286C5.78571 9.45179 5.83232 9.5 5.88929 9.5H6.51071C6.56768 9.5 6.61429 9.45179 6.61429 9.39286V5.75C6.61429 5.69107 6.56768 5.64286 6.51071 5.64286H5.88929C5.83232 5.64286 5.78571 5.69107 5.78571 5.75V9.39286ZM6.2 4.78571C6.36262 4.78228 6.51745 4.71304 6.63128 4.59286C6.74512 4.47267 6.80887 4.31112 6.80887 4.14286C6.80887 3.9746 6.74512 3.81304 6.63128 3.69286C6.51745 3.57267 6.36262 3.50343 6.2 3.5C6.03738 3.50343 5.88255 3.57267 5.76871 3.69286C5.65488 3.81304 5.59113 3.9746 5.59113 4.14286C5.59113 4.31112 5.65488 4.47267 5.76871 4.59286C5.88255 4.71304 6.03738 4.78228 6.2 4.78571Z" fill="#6D7A92"/>
</svg>
