<svg width="20" height="20" viewBox="0 0 20 20" fill="none" xmlns="http://www.w3.org/2000/svg">
<circle cx="10" cy="10" r="10" fill="#8247E5"/>
<path d="M13.0553 8.05496C12.8339 7.92815 12.5461 7.92815 12.3026 8.05496L10.5756 9.02746L9.40221 9.66178L7.67526 10.6343C7.45387 10.7611 7.16603 10.7611 6.92253 10.6343L5.54982 9.87315C5.32841 9.74628 5.17343 9.51378 5.17343 9.26003V7.75896C5.17343 7.50528 5.30627 7.27271 5.54982 7.1459L6.90036 6.4059C7.12174 6.27909 7.40959 6.27909 7.65314 6.4059L9.00367 7.1459C9.22505 7.27271 9.38003 7.50528 9.38003 7.75896V8.73153L10.5535 8.07609V7.10359C10.5535 6.8499 10.4207 6.61734 10.1771 6.49046L7.67526 5.09514C7.45387 4.96829 7.16603 4.96829 6.92253 5.09514L4.37639 6.49046C4.13284 6.61734 4 6.8499 4 7.10359V9.91547C4 10.1692 4.13284 10.4017 4.37639 10.5286L6.92253 11.9239C7.14392 12.0508 7.4317 12.0508 7.67526 11.9239L9.40221 10.9725L10.5756 10.3172L12.3026 9.36578C12.524 9.2389 12.8118 9.2389 13.0553 9.36578L14.4059 10.1057C14.6272 10.2326 14.7823 10.4652 14.7823 10.7188V12.2198C14.7823 12.4736 14.6494 12.7062 14.4059 12.833L13.0553 13.5941C12.8339 13.721 12.5461 13.721 12.3026 13.5941L10.952 12.8542C10.7306 12.7273 10.5756 12.4947 10.5756 12.241V11.2685L9.40221 11.9239V12.8964C9.40221 13.1501 9.53508 13.3827 9.77857 13.5095L12.3247 14.9048C12.5461 15.0317 12.8339 15.0317 13.0774 14.9048L15.6236 13.5095C15.845 13.3827 16 13.1501 16 12.8964V10.0846C16 9.83084 15.8671 9.59834 15.6236 9.47147L13.0553 8.05496Z" fill="white"/>
</svg>
