<svg width="28" height="28" viewBox="0 0 28 28" fill="none" xmlns="http://www.w3.org/2000/svg">
<circle cx="14" cy="14" r="14" fill="#151A1F"/>
<g clip-path="url(#clip0_2224_13541)">
<path d="M19.9399 8.06498C18.3526 6.47595 16.244 5.60156 14.0008 5.60156C9.36825 5.60156 5.59998 9.3732 5.59998 14.0091C5.59998 18.645 9.36825 22.4167 14.0008 22.4167C16.244 22.4167 18.3543 21.5423 19.9399 19.9533C21.5273 18.3642 22.4 16.254 22.4 14.0091C22.4 11.7643 21.5273 9.65233 19.9399 8.06498ZM14.0008 21.8349C9.68942 21.8349 6.18178 18.3239 6.18178 14.0091C6.18178 9.69437 9.68942 6.18337 14.0008 6.18337C18.3122 6.18337 21.8199 9.69437 21.8199 14.0091C21.8199 18.3239 18.3122 21.8349 14.0008 21.8349Z" fill="white"/>
<path d="M16.7584 14.2097C16.2203 13.7287 15.5157 13.4076 14.833 13.0965L14.828 13.0948C13.624 12.545 12.5831 12.0691 12.6572 10.9442C12.6891 10.5154 13.0002 10.2564 13.2558 10.1168C13.5433 9.95879 13.925 9.86463 14.2781 9.86463C14.3202 9.86463 14.3622 9.86631 14.4025 9.868C15.4299 9.93695 16.2405 10.3724 17.0325 11.2771L17.0795 11.3326L17.135 11.2855L17.4444 11.0165L17.4999 10.9677L17.4511 10.9122C16.5683 9.89994 15.6099 9.39044 14.4379 9.31141C14.3874 9.30637 14.3336 9.30469 14.2747 9.30469C14.2394 9.30469 14.2008 9.30469 14.1604 9.30637H14.11C13.3415 9.30637 12.4991 9.5586 11.8584 9.98232C11.0933 10.4885 10.6645 11.1846 10.6528 11.943C10.6225 13.7876 12.1308 14.4081 13.4609 14.958L13.4643 14.9596L13.4777 14.9647C14.6548 15.4523 15.6704 15.8727 15.6486 16.9993C15.6385 17.7425 14.5758 18.1528 13.846 18.1528H13.8157H13.7434V18.1545C12.6555 18.1225 11.6835 17.6534 10.8546 16.7639L10.8041 16.7101L10.7503 16.7589L10.4493 17.038L10.3955 17.0884L10.446 17.1422C11.3876 18.1562 12.5495 18.701 13.8073 18.7161H13.8645C14.6766 18.7161 15.5594 18.4975 16.2253 18.1293C17.0594 17.6736 17.5453 17.0094 17.5957 16.2594C17.6529 15.4355 17.3788 14.7645 16.7584 14.2097ZM12.8539 12.6055C13.3331 13.0158 13.9822 13.3101 14.6094 13.5942L14.6212 13.5993C15.2853 13.9053 15.9142 14.1945 16.3699 14.5964C16.8744 15.0403 17.0879 15.5549 17.0425 16.2157C17.0005 16.8698 16.5146 17.307 16.0723 17.571C16.1581 17.3962 16.2051 17.2061 16.2102 17.0044C16.2203 16.325 15.9596 15.7819 15.4114 15.3413C14.9322 14.9563 14.2966 14.6956 13.6812 14.4417C12.4016 13.9154 11.1925 13.4177 11.2144 11.948C11.2211 11.383 11.5608 10.8483 12.1712 10.4431C12.1914 10.4296 12.2115 10.4162 12.2334 10.4027C12.1611 10.5608 12.1207 10.7256 12.1106 10.8987C12.0619 11.5798 12.3057 12.1381 12.8539 12.6055Z" fill="white"/>
</g>
<defs>
<clipPath id="clip0_2224_13541">
<rect width="16.8" height="16.8" fill="white" transform="translate(5.60001 5.60156)"/>
</clipPath>
</defs>
</svg>
