<svg width="20" height="20" viewBox="0 0 20 20" fill="none" xmlns="http://www.w3.org/2000/svg">
<circle cx="10" cy="10" r="10" fill="#2C7DF7"/>
<path d="M10.8137 16C9.93776 16 9.29979 15.7938 8.899 15.3814C8.49859 14.9692 8.29819 14.5246 8.29819 14.0482C8.29819 13.874 8.33303 13.7274 8.40291 13.6083C8.47109 13.4908 8.57008 13.3934 8.68955 13.3264C8.81064 13.2577 8.95964 13.2234 9.13674 13.2234C9.31385 13.2234 9.46265 13.2577 9.58393 13.3264C9.70502 13.3951 9.8005 13.4892 9.87038 13.6083C9.94026 13.7274 9.9751 13.874 9.9751 14.0482C9.9751 14.2589 9.9239 14.4307 9.82148 14.5636C9.71888 14.6965 9.59779 14.7834 9.45803 14.8249C9.57931 14.9896 9.77028 15.1065 10.0311 15.1752C10.292 15.2487 10.5528 15.2852 10.8137 15.2852C11.1769 15.2852 11.5053 15.189 11.7989 14.9966C12.0923 14.8041 12.309 14.52 12.4488 14.1444C12.5886 13.7687 12.6584 13.3425 12.6584 12.8659C12.6584 12.3482 12.5814 11.9059 12.4278 11.5395C12.2786 11.1684 12.0574 10.8934 11.7639 10.7147C11.4794 10.5386 11.1498 10.4457 10.8137 10.4468C10.59 10.4468 10.3106 10.5384 9.9751 10.7217L9.36024 11.0241V10.7217L12.1273 7.09283H8.29819V10.859C8.29819 11.1707 8.36807 11.4272 8.50783 11.6289C8.64759 11.8305 8.86185 11.9313 9.1508 11.9313C9.3741 11.9313 9.58855 11.858 9.79357 11.7112C9.9999 11.5632 10.1794 11.3821 10.3245 11.1754C10.3432 11.1339 10.3665 11.1042 10.3944 11.0858C10.4195 11.064 10.4517 11.0518 10.4852 11.0515C10.5364 11.0515 10.5969 11.0767 10.667 11.1273C10.7322 11.2004 10.7648 11.2852 10.7648 11.3814C10.7567 11.4462 10.745 11.5105 10.7297 11.574C10.5715 11.9222 10.3524 12.1878 10.0729 12.3711C9.80077 12.5522 9.47932 12.648 9.1508 12.6461C8.32148 12.6461 7.7484 12.4857 7.43172 12.1651C7.11505 11.8442 6.95662 11.4089 6.95662 10.8592V7.09283H5V6.39167H6.95662V4.79735L6.50943 4.35711V4H7.80903L8.298 4.24729V6.39167L13.357 6.37804L13.8602 6.8728L10.7578 9.92436C10.9456 9.85072 11.1434 9.80441 11.3448 9.78689C11.6801 9.78689 12.0574 9.89235 12.4767 10.1031C12.9006 10.3093 13.2267 10.5935 13.4548 10.9552C13.6831 11.3127 13.8298 11.6563 13.8951 11.9862C13.965 12.3162 14 12.6093 14 12.8659C14 13.4525 13.8741 13.9976 13.6227 14.5019C13.3711 15.0057 12.9892 15.3814 12.4767 15.6289C11.9643 15.8764 11.4098 16 10.8137 16Z" fill="white"/>
</svg>
