<svg width="58" height="160" viewBox="0 0 58 160" fill="none" xmlns="http://www.w3.org/2000/svg">
<rect x="54.4866" y="12.2344" width="2.50888" height="2.59459" transform="rotate(90 54.4866 12.2344)" fill="#E22440"/>
<rect x="54.4866" y="22.27" width="2.50888" height="2.59459" transform="rotate(90 54.4866 22.27)" fill="#E4E4E6"/>
<rect x="54.4866" y="32.3057" width="2.50888" height="2.59459" transform="rotate(90 54.4866 32.3057)" fill="#E4E4E6"/>
<rect x="54.4866" y="52.3765" width="2.50888" height="2.59459" transform="rotate(90 54.4866 52.3765)" fill="#E4E4E6"/>
<rect x="54.4866" y="2.19922" width="2.50888" height="2.59459" transform="rotate(90 54.4866 2.19922)" fill="#E4E4E6"/>
<rect x="54.4866" y="42.3411" width="2.50888" height="2.59459" transform="rotate(90 54.4866 42.3411)" fill="#E4E4E6"/>
<rect x="54.4866" y="62.4121" width="2.50888" height="2.59459" transform="rotate(90 54.4866 62.4121)" fill="#E4E4E6"/>
<rect x="54.4866" y="32.3057" width="2.50888" height="2.59459" transform="rotate(90 54.4866 32.3057)" fill="#E4E4E6"/>
<rect x="54.4866" y="52.3765" width="2.50888" height="2.59459" transform="rotate(90 54.4866 52.3765)" fill="#E4E4E6"/>
<rect x="54.4866" y="2.19922" width="2.50888" height="2.59459" transform="rotate(90 54.4866 2.19922)" fill="#E4E4E6"/>
<rect x="54.4866" y="42.3411" width="2.50888" height="2.59459" transform="rotate(90 54.4866 42.3411)" fill="#E4E4E6"/>
<rect x="54.4866" y="62.4121" width="2.50888" height="2.59459" transform="rotate(90 54.4866 62.4121)" fill="#E4E4E6"/>
<rect x="44.108" y="12.2344" width="2.50888" height="2.59459" transform="rotate(90 44.108 12.2344)" fill="#E4E4E6"/>
<rect x="44.108" y="32.3057" width="2.50888" height="2.59459" transform="rotate(90 44.108 32.3057)" fill="#E4E4E6"/>
<rect x="44.108" y="52.3765" width="2.50888" height="2.59459" transform="rotate(90 44.108 52.3765)" fill="#E4E4E6"/>
<rect x="44.108" y="2.19922" width="2.50888" height="2.59459" transform="rotate(90 44.108 2.19922)" fill="#E4E4E6"/>
<rect x="44.108" y="42.3411" width="2.50888" height="2.59459" transform="rotate(90 44.108 42.3411)" fill="#E4E4E6"/>
<rect x="44.108" y="62.4121" width="2.50888" height="2.59459" transform="rotate(90 44.108 62.4121)" fill="#E4E4E6"/>
<rect x="44.108" y="52.3765" width="2.50888" height="2.59459" transform="rotate(90 44.108 52.3765)" fill="#E4E4E6"/>
<rect x="44.108" y="2.19922" width="2.50888" height="2.59459" transform="rotate(90 44.108 2.19922)" fill="#E4E4E6"/>
<rect x="44.108" y="42.3411" width="2.50888" height="2.59459" transform="rotate(90 44.108 42.3411)" fill="#E22440"/>
<rect x="44.108" y="62.4121" width="2.50888" height="2.59459" transform="rotate(90 44.108 62.4121)" fill="#E4E4E6"/>
<rect x="33.7296" y="12.2344" width="2.50888" height="2.59459" transform="rotate(90 33.7296 12.2344)" fill="#E4E4E6"/>
<rect x="33.7296" y="22.27" width="2.50888" height="2.59459" transform="rotate(90 33.7296 22.27)" fill="#E4E4E6"/>
<rect x="33.7296" y="32.3057" width="2.50888" height="2.59459" transform="rotate(90 33.7296 32.3057)" fill="#E4E4E6"/>
<rect x="33.7296" y="52.3765" width="2.50888" height="2.59459" transform="rotate(90 33.7296 52.3765)" fill="#E4E4E6"/>
<rect x="33.7296" y="2.19922" width="2.50888" height="2.59459" transform="rotate(90 33.7296 2.19922)" fill="#E4E4E6"/>
<rect x="33.7296" y="42.3411" width="2.50888" height="2.59459" transform="rotate(90 33.7296 42.3411)" fill="#E4E4E6"/>
<rect x="33.7296" y="62.4121" width="2.50888" height="2.59459" transform="rotate(90 33.7296 62.4121)" fill="#E4E4E6"/>
<rect x="33.7296" y="32.3057" width="2.50888" height="2.59459" transform="rotate(90 33.7296 32.3057)" fill="#E4E4E6"/>
<rect x="33.7296" y="52.3765" width="2.50888" height="2.59459" transform="rotate(90 33.7296 52.3765)" fill="#E4E4E6"/>
<rect x="33.7296" y="2.19922" width="2.50888" height="2.59459" transform="rotate(90 33.7296 2.19922)" fill="#E4E4E6"/>
<rect x="33.7296" y="42.3411" width="2.50888" height="2.59459" transform="rotate(90 33.7296 42.3411)" fill="#E4E4E6"/>
<rect x="33.7296" y="62.4121" width="2.50888" height="2.59459" transform="rotate(90 33.7296 62.4121)" fill="#E4E4E6"/>
<rect x="23.3514" y="22.27" width="2.50888" height="2.59459" transform="rotate(90 23.3514 22.27)" fill="#E4E4E6"/>
<rect x="23.3514" y="32.3057" width="2.50888" height="2.59459" transform="rotate(90 23.3514 32.3057)" fill="#E4E4E6"/>
<rect x="23.3515" y="52.3765" width="2.50888" height="2.59459" transform="rotate(90 23.3515 52.3765)" fill="#E4E4E6"/>
<rect x="23.3514" y="2.19922" width="2.50888" height="2.59459" transform="rotate(90 23.3514 2.19922)" fill="#E4E4E6"/>
<rect x="23.3514" y="42.3411" width="2.50888" height="2.59459" transform="rotate(90 23.3514 42.3411)" fill="#E4E4E6"/>
<rect x="23.3515" y="62.4121" width="2.50888" height="2.59459" transform="rotate(90 23.3515 62.4121)" fill="#E4E4E6"/>
<rect x="23.3514" y="32.3057" width="2.50888" height="2.59459" transform="rotate(90 23.3514 32.3057)" fill="#E4E4E6"/>
<rect x="23.3514" y="42.3411" width="2.50888" height="2.59459" transform="rotate(90 23.3514 42.3411)" fill="#E4E4E6"/>
<rect x="23.3515" y="62.4121" width="2.50888" height="2.59459" transform="rotate(90 23.3515 62.4121)" fill="#E4E4E6"/>
<rect x="12.973" y="22.27" width="2.50888" height="2.59459" transform="rotate(90 12.973 22.27)" fill="#E4E4E6"/>
<rect x="12.973" y="32.3057" width="2.50888" height="2.59459" transform="rotate(90 12.973 32.3057)" fill="#E4E4E6"/>
<rect x="12.973" y="52.3765" width="2.50888" height="2.59459" transform="rotate(90 12.973 52.3765)" fill="#E4E4E6"/>
<rect x="12.973" y="2.19897" width="2.50888" height="2.59459" transform="rotate(90 12.973 2.19897)" fill="#E4E4E6"/>
<rect x="12.973" y="62.4119" width="2.50888" height="2.59459" transform="rotate(90 12.973 62.4119)" fill="#E22440"/>
<rect x="12.973" y="32.3057" width="2.50888" height="2.59459" transform="rotate(90 12.973 32.3057)" fill="#E4E4E6"/>
<rect x="12.973" y="2.19897" width="2.50888" height="2.59459" transform="rotate(90 12.973 2.19897)" fill="#E22440"/>
<rect x="2.5946" y="12.2344" width="2.50888" height="2.59459" transform="rotate(90 2.5946 12.2344)" fill="#E4E4E6"/>
<rect x="2.5946" y="32.3057" width="2.50888" height="2.59459" transform="rotate(90 2.5946 32.3057)" fill="#E4E4E6"/>
<rect x="2.5946" y="2.19897" width="2.50888" height="2.59459" transform="rotate(90 2.5946 2.19897)" fill="#E4E4E6"/>
<rect x="2.5946" y="42.3411" width="2.50888" height="2.59459" transform="rotate(90 2.5946 42.3411)" fill="#E4E4E6"/>
<rect x="2.5946" y="62.4119" width="2.50888" height="2.59459" transform="rotate(90 2.5946 62.4119)" fill="#E4E4E6"/>
<rect x="2.5946" y="32.3057" width="2.50888" height="2.59459" transform="rotate(90 2.5946 32.3057)" fill="#E4E4E6"/>
<rect x="2.5946" y="2.19897" width="2.50888" height="2.59459" transform="rotate(90 2.5946 2.19897)" fill="#E4E4E6"/>
<rect x="2.5946" y="42.3411" width="2.50888" height="2.59459" transform="rotate(90 2.5946 42.3411)" fill="#E22440"/>
<rect x="54.4866" y="73.3457" width="2.50888" height="2.59459" transform="rotate(90 54.4866 73.3457)" fill="#E4E4E6"/>
<rect x="54.4866" y="83.3811" width="2.50888" height="2.59459" transform="rotate(90 54.4866 83.3811)" fill="#E4E4E6"/>
<rect x="54.4866" y="123.523" width="2.50888" height="2.59459" transform="rotate(90 54.4866 123.523)" fill="#E4E4E6"/>
<rect x="54.4866" y="93.4167" width="2.50888" height="2.59459" transform="rotate(90 54.4866 93.4167)" fill="#E4E4E6"/>
<rect x="54.4866" y="133.559" width="2.50888" height="2.59459" transform="rotate(90 54.4866 133.559)" fill="#E4E4E6"/>
<rect x="54.4866" y="153.63" width="2.50888" height="2.59459" transform="rotate(90 54.4866 153.63)" fill="#E4E4E6"/>
<rect x="54.4866" y="103.452" width="2.50888" height="2.59459" transform="rotate(90 54.4866 103.452)" fill="#E4E4E6"/>
<rect x="54.4866" y="143.594" width="2.50888" height="2.59459" transform="rotate(90 54.4866 143.594)" fill="#E4E4E6"/>
<rect x="54.4866" y="93.4167" width="2.50888" height="2.59459" transform="rotate(90 54.4866 93.4167)" fill="#E4E4E6"/>
<rect x="54.4866" y="133.559" width="2.50888" height="2.59459" transform="rotate(90 54.4866 133.559)" fill="#E4E4E6"/>
<rect x="54.4866" y="153.63" width="2.50888" height="2.59459" transform="rotate(90 54.4866 153.63)" fill="#E4E4E6"/>
<rect x="54.4866" y="103.452" width="2.50888" height="2.59459" transform="rotate(90 54.4866 103.452)" fill="#E4E4E6"/>
<rect x="54.4866" y="143.594" width="2.50888" height="2.59459" transform="rotate(90 54.4866 143.594)" fill="#E4E4E6"/>
<rect x="44.108" y="73.3457" width="2.50888" height="2.59459" transform="rotate(90 44.108 73.3457)" fill="#E4E4E6"/>
<rect x="44.108" y="113.488" width="2.50888" height="2.59459" transform="rotate(90 44.108 113.488)" fill="#E4E4E6"/>
<rect x="44.108" y="83.3811" width="2.50888" height="2.59459" transform="rotate(90 44.108 83.3811)" fill="#E4E4E6"/>
<rect x="44.108" y="123.523" width="2.50888" height="2.59459" transform="rotate(90 44.108 123.523)" fill="#E4E4E6"/>
<rect x="44.108" y="93.4167" width="2.50888" height="2.59459" transform="rotate(90 44.108 93.4167)" fill="#E4E4E6"/>
<rect x="44.108" y="133.559" width="2.50888" height="2.59459" transform="rotate(90 44.108 133.559)" fill="#E4E4E6"/>
<rect x="44.108" y="153.63" width="2.50888" height="2.59459" transform="rotate(90 44.108 153.63)" fill="#E4E4E6"/>
<rect x="44.108" y="103.452" width="2.50888" height="2.59459" transform="rotate(90 44.108 103.452)" fill="#E4E4E6"/>
<rect x="44.108" y="143.594" width="2.50888" height="2.59459" transform="rotate(90 44.108 143.594)" fill="#E4E4E6"/>
<rect x="44.108" y="93.4167" width="2.50888" height="2.59459" transform="rotate(90 44.108 93.4167)" fill="#E4E4E6"/>
<rect x="44.108" y="133.559" width="2.50888" height="2.59459" transform="rotate(90 44.108 133.559)" fill="#E4E4E6"/>
<rect x="44.108" y="103.452" width="2.50888" height="2.59459" transform="rotate(90 44.108 103.452)" fill="#E4E4E6"/>
<rect x="44.108" y="143.594" width="2.50888" height="2.59459" transform="rotate(90 44.108 143.594)" fill="#E4E4E6"/>
<rect x="33.7296" y="113.488" width="2.50888" height="2.59459" transform="rotate(90 33.7296 113.488)" fill="#E22440"/>
<rect x="33.7296" y="83.3811" width="2.50888" height="2.59459" transform="rotate(90 33.7296 83.3811)" fill="#E4E4E6"/>
<rect x="33.7296" y="123.523" width="2.50888" height="2.59459" transform="rotate(90 33.7296 123.523)" fill="#E4E4E6"/>
<rect x="33.7296" y="93.4167" width="2.50888" height="2.59459" transform="rotate(90 33.7296 93.4167)" fill="#E4E4E6"/>
<rect x="33.7296" y="133.559" width="2.50888" height="2.59459" transform="rotate(90 33.7296 133.559)" fill="#E4E4E6"/>
<rect x="33.7296" y="103.452" width="2.50888" height="2.59459" transform="rotate(90 33.7296 103.452)" fill="#E4E4E6"/>
<rect x="33.7296" y="143.594" width="2.50888" height="2.59459" transform="rotate(90 33.7296 143.594)" fill="#E4E4E6"/>
<rect x="33.7296" y="133.559" width="2.50888" height="2.59459" transform="rotate(90 33.7296 133.559)" fill="#E4E4E6"/>
<rect x="33.7296" y="103.452" width="2.50888" height="2.59459" transform="rotate(90 33.7296 103.452)" fill="#E4E4E6"/>
<rect x="33.7296" y="143.594" width="2.50888" height="2.59459" transform="rotate(90 33.7296 143.594)" fill="#E4E4E6"/>
<rect x="23.3515" y="73.3457" width="2.50888" height="2.59459" transform="rotate(90 23.3515 73.3457)" fill="#E4E4E6"/>
<rect x="23.3514" y="123.523" width="2.50888" height="2.59459" transform="rotate(90 23.3514 123.523)" fill="#E4E4E6"/>
<rect x="23.3514" y="93.4167" width="2.50888" height="2.59459" transform="rotate(90 23.3514 93.4167)" fill="#E4E4E6"/>
<rect x="23.3514" y="133.559" width="2.50888" height="2.59459" transform="rotate(90 23.3514 133.559)" fill="#E4E4E6"/>
<rect x="23.3515" y="153.63" width="2.50888" height="2.59459" transform="rotate(90 23.3515 153.63)" fill="#E4E4E6"/>
<rect x="23.3514" y="103.452" width="2.50888" height="2.59459" transform="rotate(90 23.3514 103.452)" fill="#E4E4E6"/>
<rect x="23.3514" y="93.4167" width="2.50888" height="2.59459" transform="rotate(90 23.3514 93.4167)" fill="#E4E4E6"/>
<rect x="23.3514" y="133.559" width="2.50888" height="2.59459" transform="rotate(90 23.3514 133.559)" fill="#E4E4E6"/>
<rect x="23.3515" y="153.63" width="2.50888" height="2.59459" transform="rotate(90 23.3515 153.63)" fill="#E4E4E6"/>
<rect x="23.3514" y="103.452" width="2.50888" height="2.59459" transform="rotate(90 23.3514 103.452)" fill="#E4E4E6"/>
<rect x="12.973" y="73.3457" width="2.50888" height="2.59459" transform="rotate(90 12.973 73.3457)" fill="#E4E4E6"/>
<rect x="12.973" y="113.488" width="2.50888" height="2.59459" transform="rotate(90 12.973 113.488)" fill="#E4E4E6"/>
<rect x="12.973" y="83.3811" width="2.50888" height="2.59459" transform="rotate(90 12.973 83.3811)" fill="#E4E4E6"/>
<rect x="12.973" y="93.4167" width="2.50888" height="2.59459" transform="rotate(90 12.973 93.4167)" fill="#E4E4E6"/>
<rect x="12.973" y="133.559" width="2.50888" height="2.59459" transform="rotate(90 12.973 133.559)" fill="#E22440"/>
<rect x="12.973" y="153.63" width="2.50888" height="2.59459" transform="rotate(90 12.973 153.63)" fill="#E4E4E6"/>
<rect x="12.973" y="103.452" width="2.50888" height="2.59459" transform="rotate(90 12.973 103.452)" fill="#E4E4E6"/>
<rect x="12.973" y="143.594" width="2.50888" height="2.59459" transform="rotate(90 12.973 143.594)" fill="#E4E4E6"/>
<rect x="12.973" y="93.4167" width="2.50888" height="2.59459" transform="rotate(90 12.973 93.4167)" fill="#E4E4E6"/>
<rect x="12.973" y="153.63" width="2.50888" height="2.59459" transform="rotate(90 12.973 153.63)" fill="#E22440"/>
<rect x="12.973" y="103.452" width="2.50888" height="2.59459" transform="rotate(90 12.973 103.452)" fill="#E4E4E6"/>
<rect x="12.973" y="143.594" width="2.50888" height="2.59459" transform="rotate(90 12.973 143.594)" fill="#E4E4E6"/>
<rect x="2.5946" y="113.488" width="2.50888" height="2.59459" transform="rotate(90 2.5946 113.488)" fill="#E4E4E6"/>
<rect x="2.5946" y="83.3811" width="2.50888" height="2.59459" transform="rotate(90 2.5946 83.3811)" fill="#E4E4E6"/>
<rect x="2.5946" y="133.559" width="2.50888" height="2.59459" transform="rotate(90 2.5946 133.559)" fill="#E4E4E6"/>
<rect x="2.5946" y="103.452" width="2.50888" height="2.59459" transform="rotate(90 2.5946 103.452)" fill="#E4E4E6"/>
<rect x="2.5946" y="143.594" width="2.50888" height="2.59459" transform="rotate(90 2.5946 143.594)" fill="#E4E4E6"/>
<rect x="2.5946" y="133.559" width="2.50888" height="2.59459" transform="rotate(90 2.5946 133.559)" fill="#E4E4E6"/>
<rect x="2.5946" y="103.452" width="2.50888" height="2.59459" transform="rotate(90 2.5946 103.452)" fill="#E22440"/>
</svg>
