<svg width="20" height="20" viewBox="0 0 20 20" fill="none" xmlns="http://www.w3.org/2000/svg">
<circle cx="10" cy="10" r="10" fill="black"/>
<path d="M6.08142 16L7.82301 12.9947L9.5646 10L11.2956 6.99471L11.5823 6.51852L11.7097 6.99471L12.2407 8.97355L11.646 10L9.90442 12.9947L8.17345 16H10.2549L11.9965 12.9947L12.8991 11.4392L13.3239 12.9947L14.131 16H16L15.1929 12.9947L14.3858 10L14.1735 9.22751L15.469 6.99471H13.5788L13.515 6.77249L12.8566 4.31746L12.7717 4H10.9558L10.9133 4.06349L9.21416 6.99471L7.47257 10L5.74159 12.9947L4 16H6.08142Z" fill="white"/>
</svg>
