<svg width="20" height="20" viewBox="0 0 20 20" fill="none" xmlns="http://www.w3.org/2000/svg">
<circle cx="10" cy="10" r="10" fill="white"/>
<g clip-path="url(#clip0_739_1503)">
<path d="M9.99689 4.91663C10.2446 4.91584 10.4876 4.98442 10.6983 5.11461C10.9091 5.24479 11.0792 5.43139 11.1893 5.65326L14.9392 13.1529C15.0409 13.3562 15.089 13.5821 15.0788 13.8092C15.0686 14.0363 15.0006 14.257 14.8811 14.4504C14.7616 14.6438 14.5947 14.8034 14.3961 14.9141C14.1976 15.0248 13.974 15.0829 13.7467 15.0829H6.24705C6.01974 15.0829 5.79619 15.0248 5.59766 14.9141C5.39912 14.8034 5.23218 14.6438 5.11269 14.4504C4.99321 14.257 4.92515 14.0363 4.91499 13.8092C4.90482 13.5821 4.95288 13.3562 5.0546 13.1529L8.80444 5.65326C8.9146 5.43139 9.08469 5.24479 9.29544 5.11461C9.50618 4.98442 9.74917 4.91584 9.99689 4.91663ZM9.99689 4C9.57909 3.99995 9.16954 4.11624 8.8141 4.33583C8.45867 4.55541 8.1714 4.86963 7.98447 5.24328L4.23463 12.743C4.06302 13.086 3.98196 13.4672 3.99915 13.8504C4.01634 14.2336 4.13121 14.606 4.33285 14.9323C4.53449 15.2586 4.8162 15.528 5.15123 15.7147C5.48626 15.9015 5.86347 15.9995 6.24705 15.9995H13.7467C14.1303 15.9995 14.5075 15.9015 14.8425 15.7147C15.1776 15.528 15.4593 15.2586 15.6609 14.9323C15.8626 14.606 15.9774 14.2336 15.9946 13.8504C16.0118 13.4672 15.9308 13.086 15.7591 12.743L12.0093 5.24328C11.8224 4.86963 11.5351 4.55541 11.1797 4.33583C10.8242 4.11624 10.4147 3.99995 9.99689 4Z" fill="#70D44B"/>
</g>
<defs>
<clipPath id="clip0_739_1503">
<rect width="12" height="12" fill="white" transform="translate(4 4)"/>
</clipPath>
</defs>
</svg>
