<svg width="20" height="20" viewBox="0 0 20 20" fill="none" xmlns="http://www.w3.org/2000/svg">
<circle cx="10" cy="10" r="10" fill="#70D44B"/>
<g clip-path="url(#clip0_791_17645)">
<path d="M9.99707 4.84024C10.2241 4.83952 10.4469 4.90238 10.6401 5.02172C10.8333 5.14106 10.9892 5.31211 11.0901 5.51549L14.5275 12.3902C14.6207 12.5765 14.6648 12.7836 14.6555 12.9918C14.6462 13.1999 14.5838 13.4023 14.4742 13.5795C14.3647 13.7568 14.2117 13.9031 14.0297 14.0046C13.8477 14.1061 13.6428 14.1593 13.4344 14.1593H6.55972C6.35135 14.1593 6.14643 14.1061 5.96444 14.0046C5.78245 13.9031 5.62942 13.7568 5.51989 13.5795C5.41037 13.4023 5.34798 13.1999 5.33866 12.9918C5.32934 12.7836 5.37339 12.5765 5.46664 12.3902L8.90399 5.51549C9.00498 5.31211 9.16089 5.14106 9.35407 5.02172C9.54726 4.90238 9.77 4.83952 9.99707 4.84024ZM9.99707 4C9.61409 3.99996 9.23867 4.10655 8.91285 4.30784C8.58704 4.50913 8.32371 4.79716 8.15236 5.13967L4.71501 12.0144C4.55769 12.3288 4.48339 12.6783 4.49914 13.0295C4.5149 13.3808 4.6202 13.7222 4.80503 14.0213C4.98987 14.3204 5.24811 14.5673 5.55522 14.7385C5.86233 14.9097 6.20811 14.9996 6.55972 14.9995H13.4344C13.786 14.9996 14.1318 14.9097 14.4389 14.7385C14.746 14.5673 15.0043 14.3204 15.1891 14.0213C15.3739 13.7222 15.4792 13.3808 15.495 13.0295C15.5108 12.6783 15.4364 12.3288 15.2791 12.0144L11.8418 5.13967C11.6704 4.79716 11.4071 4.50913 11.0813 4.30784C10.7555 4.10655 10.38 3.99996 9.99707 4Z" fill="white"/>
</g>
<defs>
<clipPath id="clip0_791_17645">
<rect width="11" height="11" fill="white" transform="translate(4.5 4)"/>
</clipPath>
</defs>
</svg>
