<svg width="20" height="20" viewBox="0 0 20 20" fill="none" xmlns="http://www.w3.org/2000/svg">
<circle cx="10" cy="10" r="10" fill="#F3BA2F"/>
<g clip-path="url(#clip0_739_1471)">
<path d="M7.67081 9.04226L10.0014 6.71258L12.333 9.04415L13.6883 7.68786L10.0014 4L6.31451 7.68691L7.67081 9.04226Z" fill="white"/>
<path d="M4 10.0006L5.35534 8.64429L6.71163 10.0006L5.35534 11.3559L4 10.0006Z" fill="white"/>
<path d="M7.6708 10.9577L10.0014 13.2884L12.333 10.9568L13.6893 12.3112L10.0024 15.999L6.31451 12.314L7.6708 10.9577Z" fill="white"/>
<path d="M13.2885 10.0006L14.6438 8.64429L16.0001 9.99963L14.6438 11.3569L13.2885 10.0006Z" fill="white"/>
<path d="M11.3768 9.99949L10.0016 8.62329L8.98461 9.64027L8.86708 9.75685L8.62634 9.99759L10.0016 11.3719L11.3768 10.0004V9.99949Z" fill="white"/>
</g>
<defs>
<clipPath id="clip0_739_1471">
<rect width="12" height="12" fill="white" transform="translate(4 4)"/>
</clipPath>
</defs>
</svg>
