<svg width="20" height="20" viewBox="0 0 20 20" fill="none" xmlns="http://www.w3.org/2000/svg">
<circle cx="10" cy="10" r="10" fill="#0D0234"/>
<path d="M7.87838 6.55468C8.51423 6.14146 9.21734 5.93179 9.98771 5.93179C10.7499 5.92976 11.453 6.13942 12.0991 6.56079L13.4523 5.20915C12.4007 4.40306 11.2452 3.99797 9.98771 4.00001C8.72415 4.00204 7.57064 4.40306 6.52515 5.20712L7.87838 6.55468Z" fill="white"/>
<path d="M6.54548 12.1077C6.11546 11.4563 5.90147 10.752 5.9035 9.9968C5.90554 9.22938 6.11749 8.5271 6.5414 7.88793L5.19224 6.53833C4.39946 7.57037 4.00205 8.72252 4.00001 9.9968C3.99797 11.2589 4.39742 12.411 5.19632 13.4573L6.54548 12.1077Z" fill="white"/>
<path d="M12.1111 13.4492C11.4691 13.8808 10.766 14.1006 10.0018 14.1067C9.22528 14.1128 8.51402 13.893 7.86797 13.4533L6.52289 14.7968C7.56838 15.609 8.73005 16.01 10.0099 15.9998C11.2755 15.9896 12.425 15.5886 13.4582 14.7947L12.1111 13.4492Z" fill="white"/>
<path d="M13.4422 7.88597C13.8763 8.53939 14.0882 9.25592 14.0801 10.0355C14.0719 10.7867 13.8579 11.4788 13.4401 12.1118L14.7913 13.4614C15.5861 12.4274 15.9896 11.2793 15.9998 10.0193C16.01 8.74091 15.6085 7.58063 14.7954 6.53638L13.4422 7.88597Z" fill="white"/>
<path d="M14.7693 14.8945C14.7489 14.8741 14.7388 14.8497 14.7388 14.8232C14.7388 14.7967 14.7489 14.7723 14.7693 14.752C14.808 14.7133 14.8712 14.7133 14.912 14.752C14.9324 14.7723 14.9426 14.7967 14.9426 14.8232C14.9426 14.8497 14.9324 14.8741 14.912 14.8945C14.8916 14.9148 14.8672 14.923 14.8407 14.923C14.8142 14.923 14.7897 14.9128 14.7693 14.8945ZM14.484 14.6095C14.4636 14.5891 14.4555 14.5647 14.4555 14.5382C14.4555 14.5118 14.4657 14.4873 14.484 14.467C14.5227 14.4283 14.5879 14.4283 14.6267 14.467C14.647 14.4873 14.6552 14.5118 14.6552 14.5382C14.6552 14.5647 14.645 14.5891 14.6267 14.6095C14.6063 14.6298 14.5818 14.638 14.5553 14.638C14.5309 14.638 14.5044 14.6298 14.484 14.6095ZM14.2007 14.3245C14.1803 14.3041 14.1702 14.2797 14.1702 14.2532C14.1702 14.2268 14.1803 14.2024 14.2007 14.182C14.2394 14.1433 14.3047 14.1433 14.3434 14.182C14.3638 14.2024 14.3719 14.2268 14.3719 14.2532C14.3719 14.2797 14.3617 14.3041 14.3434 14.3245C14.323 14.3448 14.2985 14.355 14.2721 14.355C14.2456 14.355 14.2191 14.3448 14.2007 14.3245ZM13.9154 14.0395C13.895 14.0192 13.8869 13.9947 13.8869 13.9683C13.8869 13.9418 13.8971 13.9174 13.9154 13.897C13.9541 13.8583 14.0193 13.8583 14.0581 13.897C14.0784 13.9174 14.0866 13.9418 14.0866 13.9683C14.0866 13.9947 14.0764 14.0192 14.0581 14.0395C14.0377 14.0599 14.0132 14.07 13.9867 14.07C13.9602 14.07 13.9358 14.0599 13.9154 14.0395ZM13.6301 13.7566C13.6097 13.7362 13.5995 13.7118 13.5995 13.6853C13.5995 13.6589 13.6097 13.6344 13.6301 13.6141C13.6688 13.5754 13.732 13.5754 13.7727 13.6141C13.7931 13.6344 13.8013 13.6589 13.8013 13.6853C13.8013 13.7118 13.7911 13.7362 13.7727 13.7566C13.7524 13.7769 13.7279 13.7851 13.7014 13.7851C13.677 13.7851 13.6505 13.7749 13.6301 13.7566ZM13.3468 13.4716C13.3264 13.4512 13.3162 13.4268 13.3162 13.4003C13.3162 13.3739 13.3264 13.3494 13.3468 13.3291C13.3855 13.2904 13.4487 13.2904 13.4895 13.3291C13.5098 13.3494 13.52 13.3739 13.52 13.4003C13.52 13.4268 13.5098 13.4512 13.4895 13.4716C13.4691 13.4919 13.4446 13.5001 13.4181 13.5001C13.3916 13.5001 13.3651 13.4919 13.3468 13.4716ZM13.0615 13.1866C13.0411 13.1662 13.0329 13.1418 13.0329 13.1153C13.0329 13.0889 13.0431 13.0645 13.0615 13.0441C13.1002 13.0054 13.1654 13.0054 13.2041 13.0441C13.2245 13.0645 13.2347 13.0889 13.2347 13.1153C13.2347 13.1418 13.2245 13.1662 13.2041 13.1866C13.1838 13.207 13.1593 13.2171 13.1328 13.2171C13.1063 13.2171 13.0819 13.207 13.0615 13.1866ZM12.7762 12.9036C12.7558 12.8833 12.7456 12.8589 12.7456 12.8324C12.7456 12.8059 12.7558 12.7815 12.7762 12.7612C12.8149 12.7225 12.8801 12.7225 12.9188 12.7612C12.9392 12.7815 12.9474 12.8059 12.9474 12.8324C12.9474 12.8589 12.9372 12.8833 12.9188 12.9036C12.8984 12.924 12.874 12.9321 12.8475 12.9321C12.823 12.9321 12.7965 12.922 12.7762 12.9036ZM12.4908 12.6187C12.4705 12.5983 12.4603 12.5739 12.4603 12.5474C12.4603 12.521 12.4705 12.4965 12.4908 12.4762C12.5296 12.4375 12.5948 12.4375 12.6335 12.4762C12.6539 12.4965 12.6641 12.521 12.6641 12.5474C12.6641 12.5739 12.6539 12.5983 12.6335 12.6187C12.6131 12.639 12.5887 12.6492 12.5622 12.6492C12.5377 12.6472 12.5112 12.637 12.4908 12.6187ZM12.2076 12.3337C12.1872 12.3133 12.177 12.2889 12.177 12.2624C12.177 12.236 12.1872 12.2115 12.2076 12.1912C12.2463 12.1525 12.3095 12.1525 12.3502 12.1912C12.3706 12.2115 12.3808 12.236 12.3808 12.2624C12.3808 12.2889 12.3706 12.3133 12.3502 12.3337C12.3298 12.354 12.3054 12.3642 12.2789 12.3642C12.2524 12.3642 12.2259 12.354 12.2076 12.3337ZM11.9222 12.0507C11.9019 12.0304 11.8917 12.006 11.8917 11.9795C11.8917 11.953 11.9019 11.9286 11.9222 11.9082C11.961 11.8696 12.0241 11.8696 12.0649 11.9082C12.0853 11.9286 12.0955 11.953 12.0955 11.9795C12.0955 12.006 12.0853 12.0304 12.0649 12.0507C12.0445 12.0711 12.0201 12.0792 11.9936 12.0792C11.9671 12.0792 11.9426 12.0691 11.9222 12.0507ZM11.6369 11.7658C11.6165 11.7454 11.6084 11.721 11.6084 11.6945C11.6084 11.668 11.6186 11.6436 11.6369 11.6233C11.6756 11.5846 11.7409 11.5846 11.7796 11.6233C11.8 11.6436 11.8101 11.668 11.8101 11.6945C11.8101 11.721 11.8 11.7454 11.7796 11.7658C11.7592 11.7861 11.7347 11.7963 11.7082 11.7963C11.6838 11.7943 11.6573 11.7841 11.6369 11.7658ZM11.3536 11.4808C11.3333 11.4604 11.3251 11.436 11.3251 11.4095C11.3251 11.3831 11.3353 11.3586 11.3536 11.3383C11.3924 11.2996 11.4576 11.2996 11.4963 11.3383C11.5167 11.3586 11.5269 11.3831 11.5269 11.4095C11.5269 11.436 11.5167 11.4604 11.4963 11.4808C11.4759 11.5011 11.4515 11.5113 11.425 11.5113C11.3985 11.5093 11.372 11.5011 11.3536 11.4808ZM11.0683 11.1958C11.0479 11.1754 11.0377 11.151 11.0377 11.1245C11.0377 11.0981 11.0479 11.0737 11.0683 11.0533C11.107 11.0146 11.1723 11.0146 11.211 11.0533C11.2314 11.0737 11.2395 11.0981 11.2395 11.1245C11.2395 11.151 11.2293 11.1754 11.211 11.1958C11.1906 11.2161 11.1661 11.2263 11.1396 11.2263C11.1132 11.2263 11.0867 11.2161 11.0683 11.1958ZM10.783 10.9128C10.7626 10.8925 10.7524 10.8681 10.7524 10.8416C10.7524 10.8151 10.7626 10.7907 10.783 10.7704C10.8217 10.7317 10.8869 10.7317 10.9257 10.7704C10.946 10.7907 10.9562 10.8151 10.9562 10.8416C10.9562 10.8681 10.946 10.8925 10.9257 10.9128C10.9053 10.9332 10.8808 10.9434 10.8543 10.9434C10.8278 10.9413 10.8034 10.9312 10.783 10.9128ZM10.4997 10.6279C10.4793 10.6075 10.4691 10.5831 10.4691 10.5566C10.4691 10.5302 10.4793 10.5057 10.4997 10.4854C10.5384 10.4467 10.6016 10.4467 10.6424 10.4854C10.6628 10.5057 10.6729 10.5302 10.6729 10.5566C10.6729 10.5831 10.6628 10.6075 10.6424 10.6279C10.622 10.6482 10.5975 10.6564 10.571 10.6564C10.5445 10.6564 10.5181 10.6462 10.4997 10.6279ZM10.2144 10.3429C10.194 10.3225 10.1859 10.2981 10.1859 10.2716C10.1859 10.2452 10.1961 10.2207 10.2144 10.2004C10.2531 10.1617 10.3183 10.1617 10.3571 10.2004C10.3774 10.2207 10.3876 10.2452 10.3876 10.2716C10.3876 10.2981 10.3774 10.3225 10.3571 10.3429C10.3367 10.3632 10.3122 10.3714 10.2857 10.3714C10.2592 10.3734 10.2327 10.3632 10.2144 10.3429ZM9.92907 10.0579C9.90869 10.0375 9.90054 10.0131 9.90054 9.98665C9.90054 9.96019 9.91073 9.93576 9.92907 9.9154C9.96779 9.87673 10.033 9.87673 10.0717 9.9154C10.0921 9.93576 10.1003 9.96019 10.1003 9.98665C10.1003 10.0131 10.0901 10.0375 10.0717 10.0579C10.0514 10.0783 10.0269 10.0884 10.0004 10.0884C9.97391 10.0884 9.94945 10.0783 9.92907 10.0579ZM9.64375 9.77495C9.62337 9.75459 9.61318 9.73017 9.61318 9.7037C9.61318 9.67724 9.62337 9.65281 9.64375 9.63246C9.68247 9.59378 9.74769 9.59378 9.78641 9.63246C9.80679 9.65281 9.81494 9.67724 9.81494 9.7037C9.81494 9.73017 9.80475 9.75459 9.78641 9.77495C9.76603 9.7953 9.74158 9.80548 9.71508 9.80548C9.69063 9.80345 9.66413 9.79327 9.64375 9.77495ZM9.36047 9.48997C9.34009 9.46961 9.3299 9.44518 9.3299 9.41872C9.3299 9.39226 9.34009 9.36783 9.36047 9.34748C9.39919 9.3088 9.46441 9.3088 9.50313 9.34748C9.52351 9.36783 9.53166 9.39226 9.53166 9.41872C9.53166 9.44518 9.52147 9.46961 9.50313 9.48997C9.48275 9.51032 9.45829 9.51846 9.4318 9.51846C9.40531 9.51846 9.37881 9.51032 9.36047 9.48997ZM9.07515 9.20498C9.05477 9.18463 9.04458 9.1602 9.04458 9.13374C9.04458 9.10728 9.05477 9.08285 9.07515 9.06249C9.11387 9.02382 9.17705 9.02382 9.21781 9.06249C9.23819 9.08285 9.24838 9.10728 9.24838 9.13374C9.24838 9.1602 9.23819 9.18463 9.21781 9.20498C9.19743 9.22534 9.17297 9.23552 9.14648 9.23552C9.11999 9.23552 9.09349 9.22534 9.07515 9.20498ZM8.78983 8.92204C8.76945 8.90168 8.7613 8.87725 8.7613 8.85079C8.7613 8.82433 8.77149 8.7999 8.78983 8.77955C8.82855 8.74087 8.89377 8.74087 8.93249 8.77955C8.95287 8.7999 8.96306 8.82433 8.96306 8.85079C8.96306 8.87725 8.95287 8.90168 8.93249 8.92204C8.91211 8.94239 8.88765 8.95054 8.86116 8.95054C8.83467 8.95054 8.81021 8.94036 8.78983 8.92204ZM8.50451 8.63705C8.48413 8.6167 8.47394 8.59227 8.47394 8.56581C8.47394 8.53935 8.48413 8.51492 8.50451 8.49456C8.54323 8.45589 8.60641 8.45589 8.64717 8.49456C8.66755 8.51492 8.6757 8.53935 8.6757 8.56581C8.6757 8.59227 8.66551 8.6167 8.64717 8.63705C8.62679 8.65741 8.60233 8.66555 8.57584 8.66555C8.55138 8.66555 8.52489 8.65538 8.50451 8.63705ZM8.22123 8.35207C8.20085 8.33172 8.19269 8.30729 8.19269 8.28083C8.19269 8.25436 8.20288 8.22994 8.22123 8.20958C8.25995 8.1709 8.32517 8.1709 8.36389 8.20958C8.38427 8.22994 8.39446 8.25436 8.39446 8.28083C8.39446 8.30729 8.38427 8.33172 8.36389 8.35207C8.34351 8.37243 8.31905 8.38261 8.29256 8.38261C8.26606 8.38261 8.23957 8.37243 8.22123 8.35207ZM7.93591 8.06709C7.91553 8.04673 7.90737 8.02231 7.90737 7.99584C7.90737 7.96938 7.91756 7.94495 7.93591 7.9246C7.97463 7.88592 8.03984 7.88592 8.07857 7.9246C8.09895 7.94495 8.1071 7.96938 8.1071 7.99584C8.1071 8.02231 8.09691 8.04673 8.07857 8.06709C8.05819 8.08745 8.03373 8.09762 8.00724 8.09762C7.98074 8.09762 7.95629 8.08745 7.93591 8.06709ZM7.65059 7.78414C7.63021 7.76379 7.62002 7.73936 7.62002 7.7129C7.62002 7.68643 7.63021 7.66201 7.65059 7.64165C7.68931 7.60298 7.75452 7.60298 7.79325 7.64165C7.81363 7.66201 7.82178 7.68643 7.82178 7.7129C7.82178 7.73936 7.81159 7.76379 7.79325 7.78414C7.77287 7.8045 7.74841 7.81264 7.72192 7.81264C7.69746 7.81264 7.67097 7.80246 7.65059 7.78414ZM7.3673 7.49916C7.34692 7.4788 7.33877 7.45438 7.33877 7.42791C7.33877 7.40145 7.34896 7.37703 7.3673 7.35667C7.40603 7.31799 7.47124 7.31799 7.50996 7.35667C7.53034 7.37703 7.54053 7.40145 7.54053 7.42791C7.54053 7.45438 7.53034 7.4788 7.50996 7.49916C7.48958 7.51952 7.46513 7.52766 7.43863 7.52766C7.41214 7.52766 7.38565 7.51952 7.3673 7.49916ZM7.08198 7.21418C7.0616 7.19382 7.05141 7.1694 7.05141 7.14293C7.05141 7.11647 7.0616 7.09204 7.08198 7.07169C7.12071 7.03301 7.18388 7.03301 7.22464 7.07169C7.24502 7.09204 7.25318 7.11647 7.25318 7.14293C7.25318 7.1694 7.24299 7.19382 7.22464 7.21418C7.20426 7.23453 7.17981 7.24471 7.15331 7.24471C7.12682 7.24471 7.10236 7.23453 7.08198 7.21418ZM6.79666 6.9292C6.77628 6.90884 6.76813 6.88441 6.76813 6.85795C6.76813 6.83149 6.77832 6.80706 6.79666 6.7867C6.83539 6.74803 6.9006 6.74803 6.93932 6.7867C6.9597 6.80706 6.96989 6.83149 6.96989 6.85795C6.96989 6.88441 6.9597 6.90884 6.93932 6.9292C6.91894 6.94955 6.89449 6.95769 6.86799 6.95769C6.8415 6.95973 6.81704 6.94955 6.79666 6.9292ZM6.51134 6.64625C6.49096 6.62589 6.48077 6.60147 6.48077 6.575C6.48077 6.54854 6.49096 6.52411 6.51134 6.50376C6.55006 6.46508 6.61528 6.46508 6.654 6.50376C6.67438 6.52411 6.68254 6.54854 6.68254 6.575C6.68254 6.60147 6.67234 6.62589 6.654 6.64625C6.63362 6.6666 6.60917 6.67678 6.58267 6.67678C6.55822 6.67475 6.53172 6.66457 6.51134 6.64625ZM6.22806 6.36127C6.20768 6.34091 6.19953 6.31648 6.19953 6.29002C6.19953 6.26356 6.20972 6.23913 6.22806 6.21877C6.26678 6.1801 6.332 6.1801 6.37072 6.21877C6.3911 6.23913 6.40129 6.26356 6.40129 6.29002C6.40129 6.31648 6.3911 6.34091 6.37072 6.36127C6.35034 6.38162 6.32588 6.38976 6.29939 6.38976C6.2729 6.3918 6.2464 6.38162 6.22806 6.36127ZM5.94274 6.07628C5.92236 6.05593 5.91217 6.0315 5.91217 6.00504C5.91217 5.97858 5.92236 5.95415 5.94274 5.93379C5.98146 5.89512 6.04464 5.89512 6.0854 5.93379C6.10578 5.95415 6.11393 5.97858 6.11393 6.00504C6.11393 6.0315 6.10374 6.05593 6.0854 6.07628C6.06502 6.09664 6.04056 6.10682 6.01407 6.10682C5.98758 6.10682 5.96312 6.09664 5.94274 6.07628Z" fill="white"/>
<path d="M5.08877 14.8946C5.06839 14.8742 5.06024 14.8498 5.06024 14.8234C5.06024 14.7969 5.07043 14.7725 5.08877 14.7521C5.1275 14.7134 5.19271 14.7134 5.23143 14.7521C5.25181 14.7725 5.262 14.7969 5.262 14.8234C5.262 14.8498 5.25181 14.8742 5.23143 14.8946C5.21105 14.915 5.1866 14.9231 5.1601 14.9231C5.13361 14.9231 5.10712 14.9129 5.08877 14.8946ZM5.37409 14.6096C5.35371 14.5893 5.34352 14.5648 5.34352 14.5384C5.34352 14.5119 5.35371 14.4875 5.37409 14.4671C5.41281 14.4284 5.47803 14.4284 5.51675 14.4671C5.53713 14.4875 5.54528 14.5119 5.54528 14.5384C5.54528 14.5648 5.53509 14.5893 5.51675 14.6096C5.49637 14.63 5.47192 14.6381 5.44542 14.6381C5.41893 14.6381 5.39243 14.63 5.37409 14.6096ZM5.65737 14.3246C5.63699 14.3043 5.62884 14.2798 5.62884 14.2534C5.62884 14.2269 5.63903 14.2025 5.65737 14.1821C5.6961 14.1435 5.76131 14.1435 5.80003 14.1821C5.82041 14.2025 5.82857 14.2269 5.82857 14.2534C5.82857 14.2798 5.81838 14.3043 5.80003 14.3246C5.77965 14.345 5.7552 14.3552 5.7287 14.3552C5.70425 14.3552 5.67775 14.345 5.65737 14.3246ZM5.94269 14.0396C5.92231 14.0193 5.91416 13.9949 5.91416 13.9684C5.91416 13.9419 5.92435 13.9175 5.94269 13.8972C5.98142 13.8585 6.04663 13.8585 6.08535 13.8972C6.10573 13.9175 6.11592 13.9419 6.11592 13.9684C6.11592 13.9949 6.10573 14.0193 6.08535 14.0396C6.06497 14.06 6.04052 14.0702 6.01402 14.0702C5.98753 14.0702 5.96307 14.06 5.94269 14.0396ZM6.22801 13.7567C6.20763 13.7363 6.19744 13.7119 6.19744 13.6855C6.19744 13.659 6.20763 13.6346 6.22801 13.6142C6.26673 13.5755 6.32991 13.5755 6.37067 13.6142C6.39105 13.6346 6.40124 13.659 6.40124 13.6855C6.40124 13.7119 6.39105 13.7363 6.37067 13.7567C6.35029 13.7771 6.32584 13.7852 6.29934 13.7852C6.27285 13.7852 6.24635 13.775 6.22801 13.7567ZM6.51129 13.4717C6.49091 13.4514 6.48276 13.4269 6.48276 13.4005C6.48276 13.374 6.49295 13.3496 6.51129 13.3292C6.55002 13.2906 6.61523 13.2906 6.65395 13.3292C6.67433 13.3496 6.68452 13.374 6.68452 13.4005C6.68452 13.4269 6.67433 13.4514 6.65395 13.4717C6.63357 13.4921 6.60912 13.5002 6.58262 13.5002C6.55817 13.5002 6.53167 13.4921 6.51129 13.4717ZM6.79661 13.1867C6.77623 13.1664 6.76604 13.142 6.76604 13.1155C6.76604 13.089 6.77623 13.0646 6.79661 13.0442C6.83534 13.0056 6.90055 13.0056 6.93927 13.0442C6.95965 13.0646 6.96781 13.089 6.96781 13.1155C6.96781 13.142 6.95762 13.1664 6.93927 13.1867C6.91889 13.2071 6.89444 13.2173 6.86794 13.2173C6.84145 13.2173 6.81699 13.2071 6.79661 13.1867ZM7.08193 12.9038C7.06155 12.8834 7.05136 12.859 7.05136 12.8325C7.05136 12.8061 7.06155 12.7817 7.08193 12.7613C7.12065 12.7226 7.18587 12.7226 7.22459 12.7613C7.24497 12.7817 7.25516 12.8061 7.25516 12.8325C7.25516 12.859 7.24497 12.8834 7.22459 12.9038C7.20421 12.9241 7.17976 12.9323 7.15326 12.9323C7.12677 12.9323 7.10231 12.9221 7.08193 12.9038ZM7.36725 12.6188C7.34687 12.5985 7.33872 12.574 7.33872 12.5476C7.33872 12.5211 7.34891 12.4967 7.36725 12.4763C7.40597 12.4376 7.47119 12.4376 7.50991 12.4763C7.53029 12.4967 7.53844 12.5211 7.53844 12.5476C7.53844 12.574 7.52825 12.5985 7.50991 12.6188C7.48953 12.6392 7.46508 12.6493 7.43858 12.6493C7.41209 12.6473 7.38559 12.6371 7.36725 12.6188ZM7.65053 12.3338C7.63015 12.3135 7.622 12.289 7.622 12.2626C7.622 12.2361 7.63219 12.2117 7.65053 12.1913C7.68926 12.1527 7.75447 12.1527 7.79319 12.1913C7.81357 12.2117 7.82376 12.2361 7.82376 12.2626C7.82376 12.289 7.81357 12.3135 7.79319 12.3338C7.77281 12.3542 7.74836 12.3644 7.72186 12.3644C7.69741 12.3644 7.67091 12.3542 7.65053 12.3338ZM7.93585 12.0509C7.91547 12.0305 7.90528 12.0061 7.90528 11.9796C7.90528 11.9532 7.91547 11.9287 7.93585 11.9084C7.97458 11.8697 8.03775 11.8697 8.07851 11.9084C8.09889 11.9287 8.10704 11.9532 8.10704 11.9796C8.10704 12.0061 8.09686 12.0305 8.07851 12.0509C8.05813 12.0712 8.03368 12.0794 8.00718 12.0794C7.98069 12.0794 7.95623 12.0692 7.93585 12.0509ZM8.22117 11.7659C8.20079 11.7455 8.19264 11.7211 8.19264 11.6946C8.19264 11.6682 8.20283 11.6438 8.22117 11.6234C8.25989 11.5847 8.32511 11.5847 8.36383 11.6234C8.38421 11.6438 8.39236 11.6682 8.39236 11.6946C8.39236 11.7211 8.38217 11.7455 8.36383 11.7659C8.34345 11.7862 8.319 11.7964 8.2925 11.7964C8.26601 11.7944 8.23951 11.7842 8.22117 11.7659ZM8.50445 11.4809C8.48407 11.4606 8.47388 11.4361 8.47388 11.4097C8.47388 11.3832 8.48407 11.3588 8.50445 11.3384C8.54318 11.2997 8.60839 11.2997 8.64711 11.3384C8.66749 11.3588 8.67565 11.3832 8.67565 11.4097C8.67565 11.4361 8.66546 11.4606 8.64711 11.4809C8.62673 11.5013 8.60228 11.5114 8.57578 11.5114C8.55133 11.5094 8.52483 11.5013 8.50445 11.4809ZM8.78977 11.1959C8.76939 11.1756 8.76124 11.1511 8.76124 11.1247C8.76124 11.0982 8.77143 11.0738 8.78977 11.0534C8.8285 11.0148 8.89371 11.0148 8.93243 11.0534C8.95281 11.0738 8.963 11.0982 8.963 11.1247C8.963 11.1511 8.95281 11.1756 8.93243 11.1959C8.91205 11.2163 8.8876 11.2265 8.8611 11.2265C8.83461 11.2265 8.81015 11.2163 8.78977 11.1959ZM9.07509 10.913C9.05471 10.8926 9.04656 10.8682 9.04656 10.8417C9.04656 10.8153 9.05675 10.7908 9.07509 10.7705C9.11381 10.7318 9.17903 10.7318 9.21775 10.7705C9.23813 10.7908 9.24832 10.8153 9.24832 10.8417C9.24832 10.8682 9.23813 10.8926 9.21775 10.913C9.19737 10.9333 9.17292 10.9435 9.14642 10.9435C9.11993 10.9415 9.09547 10.9313 9.07509 10.913ZM9.36041 10.628C9.34003 10.6076 9.32984 10.5832 9.32984 10.5568C9.32984 10.5303 9.34003 10.5059 9.36041 10.4855C9.39913 10.4468 9.46231 10.4468 9.50307 10.4855C9.52345 10.5059 9.53364 10.5303 9.53364 10.5568C9.53364 10.5832 9.52345 10.6076 9.50307 10.628C9.48269 10.6484 9.45824 10.6565 9.43174 10.6565C9.40525 10.6565 9.37875 10.6463 9.36041 10.628ZM9.64369 10.343C9.62331 10.3227 9.61312 10.2982 9.61312 10.2718C9.61312 10.2453 9.62331 10.2209 9.64369 10.2005C9.68242 10.1618 9.74559 10.1618 9.78635 10.2005C9.80673 10.2209 9.81489 10.2453 9.81489 10.2718C9.81489 10.2982 9.8047 10.3227 9.78635 10.343C9.76597 10.3634 9.74152 10.3715 9.71502 10.3715C9.69057 10.3735 9.66407 10.3634 9.64369 10.343ZM9.92901 10.058C9.90863 10.0377 9.90048 10.0132 9.90048 9.98679C9.90048 9.96032 9.91067 9.9359 9.92901 9.91554C9.96773 9.87686 10.033 9.87686 10.0717 9.91554C10.0921 9.9359 10.1002 9.96032 10.1002 9.98679C10.1002 10.0132 10.09 10.0377 10.0717 10.058C10.0513 10.0784 10.0268 10.0886 10.0003 10.0886C9.97385 10.0886 9.94939 10.0784 9.92901 10.058ZM10.2143 9.77508C10.194 9.75473 10.1858 9.7303 10.1858 9.70384C10.1858 9.67738 10.196 9.65295 10.2143 9.63259C10.2531 9.59392 10.3183 9.59392 10.357 9.63259C10.3774 9.65295 10.3855 9.67738 10.3855 9.70384C10.3855 9.7303 10.3753 9.75473 10.357 9.77508C10.3366 9.79544 10.3122 9.80562 10.2857 9.80562C10.2592 9.80358 10.2347 9.7934 10.2143 9.77508ZM10.4997 9.4901C10.4793 9.46975 10.4711 9.44532 10.4711 9.41886C10.4711 9.39239 10.4813 9.36797 10.4997 9.34761C10.5384 9.30893 10.6036 9.30893 10.6423 9.34761C10.6627 9.36797 10.6729 9.39239 10.6729 9.41886C10.6729 9.44532 10.6627 9.46975 10.6423 9.4901C10.6219 9.51046 10.5975 9.5186 10.571 9.5186C10.5445 9.5186 10.518 9.51046 10.4997 9.4901ZM10.7829 9.20512C10.7626 9.18476 10.7524 9.16034 10.7524 9.13387C10.7524 9.10741 10.7626 9.08298 10.7829 9.06263C10.8217 9.02395 10.8848 9.02395 10.9256 9.06263C10.946 9.08298 10.9541 9.10741 10.9541 9.13387C10.9541 9.16034 10.9439 9.18476 10.9256 9.20512C10.9052 9.22547 10.8808 9.23362 10.8543 9.23362C10.8278 9.23565 10.8033 9.22547 10.7829 9.20512ZM11.0683 8.92217C11.0479 8.90182 11.0397 8.87739 11.0397 8.85093C11.0397 8.82446 11.0499 8.80004 11.0683 8.77968C11.107 8.741 11.1722 8.741 11.2109 8.77968C11.2313 8.80004 11.2415 8.82446 11.2415 8.85093C11.2415 8.87739 11.2313 8.90182 11.2109 8.92217C11.1905 8.94253 11.1661 8.95067 11.1396 8.95067C11.1131 8.95067 11.0886 8.94049 11.0683 8.92217ZM11.3536 8.63719C11.3332 8.61683 11.323 8.59241 11.323 8.56594C11.323 8.53948 11.3332 8.51505 11.3536 8.4947C11.3923 8.45602 11.4575 8.45602 11.4962 8.4947C11.5166 8.51505 11.5268 8.53948 11.5268 8.56594C11.5268 8.59241 11.5166 8.61683 11.4962 8.63719C11.4759 8.65754 11.4514 8.66772 11.4249 8.66772C11.3984 8.66569 11.3719 8.65551 11.3536 8.63719ZM11.6369 8.35221C11.6165 8.33185 11.6063 8.30742 11.6063 8.28096C11.6063 8.2545 11.6165 8.23007 11.6369 8.20971C11.6756 8.17104 11.7408 8.17104 11.7795 8.20971C11.7999 8.23007 11.808 8.2545 11.808 8.28096C11.808 8.30742 11.7979 8.33185 11.7795 8.35221C11.7591 8.37256 11.7347 8.38274 11.7082 8.38274C11.6837 8.38274 11.6572 8.37256 11.6369 8.35221ZM11.9222 8.06722C11.9018 8.04687 11.8936 8.02244 11.8936 7.99598C11.8936 7.96951 11.9038 7.94509 11.9222 7.92473C11.9609 7.88606 12.0261 7.88606 12.0648 7.92473C12.0852 7.94509 12.0954 7.96951 12.0954 7.99598C12.0954 8.02244 12.0852 8.04687 12.0648 8.06722C12.0445 8.08758 12.02 8.09776 11.9935 8.09776C11.967 8.09776 11.9426 8.08758 11.9222 8.06722ZM12.2075 7.78428C12.1871 7.76392 12.1769 7.73949 12.1769 7.71303C12.1769 7.68657 12.1871 7.66214 12.2075 7.64178C12.2462 7.60311 12.3094 7.60311 12.3502 7.64178C12.3705 7.66214 12.3807 7.68657 12.3807 7.71303C12.3807 7.73949 12.3705 7.76392 12.3502 7.78428C12.3298 7.80463 12.3053 7.81277 12.2788 7.81277C12.2523 7.81277 12.2258 7.8026 12.2075 7.78428ZM12.4928 7.49929C12.4724 7.47894 12.4622 7.45451 12.4622 7.42805C12.4622 7.40158 12.4724 7.37716 12.4928 7.3568C12.5315 7.31813 12.5947 7.31813 12.6355 7.3568C12.6559 7.37716 12.664 7.40158 12.664 7.42805C12.664 7.45451 12.6538 7.47894 12.6355 7.49929C12.6151 7.51965 12.5906 7.52779 12.5641 7.52779C12.5376 7.52779 12.5112 7.51965 12.4928 7.49929ZM12.7761 7.21431C12.7557 7.19395 12.7476 7.16953 12.7476 7.14306C12.7476 7.1166 12.7578 7.09217 12.7761 7.07182C12.8148 7.03314 12.88 7.03314 12.9188 7.07182C12.9391 7.09217 12.9493 7.1166 12.9493 7.14306C12.9493 7.16953 12.9391 7.19395 12.9188 7.21431C12.8984 7.23467 12.8739 7.24484 12.8474 7.24484C12.823 7.24484 12.7965 7.23467 12.7761 7.21431ZM13.0614 6.92933C13.041 6.90897 13.0308 6.88454 13.0308 6.85808C13.0308 6.83162 13.041 6.80719 13.0614 6.78684C13.1001 6.74816 13.1653 6.74816 13.2041 6.78684C13.2245 6.80719 13.2326 6.83162 13.2326 6.85808C13.2326 6.88454 13.2224 6.90897 13.2041 6.92933C13.1837 6.94968 13.1592 6.95783 13.1327 6.95783C13.1062 6.95986 13.0818 6.94968 13.0614 6.92933ZM13.3467 6.64638C13.3264 6.62602 13.3182 6.6016 13.3182 6.57513C13.3182 6.54867 13.3284 6.52424 13.3467 6.50389C13.3855 6.46521 13.4507 6.46521 13.4894 6.50389C13.5098 6.52424 13.5179 6.54867 13.5179 6.57513C13.5179 6.6016 13.5077 6.62602 13.4894 6.64638C13.469 6.66674 13.4446 6.67691 13.4181 6.67691C13.3916 6.67488 13.3651 6.6647 13.3467 6.64638ZM13.63 6.3614C13.6096 6.34104 13.6015 6.31661 13.6015 6.29015C13.6015 6.26369 13.6117 6.23926 13.63 6.2189C13.6687 6.18023 13.7339 6.18023 13.7727 6.2189C13.7931 6.23926 13.8032 6.26369 13.8032 6.29015C13.8032 6.31661 13.7931 6.34104 13.7727 6.3614C13.7523 6.38175 13.7278 6.3899 13.7013 6.3899C13.6769 6.39193 13.6504 6.38175 13.63 6.3614ZM13.9153 6.07641C13.895 6.05606 13.8848 6.03163 13.8848 6.00517C13.8848 5.97871 13.895 5.95428 13.9153 5.93392C13.9541 5.89525 14.0172 5.89525 14.058 5.93392C14.0784 5.95428 14.0886 5.97871 14.0886 6.00517C14.0886 6.03163 14.0784 6.05606 14.058 6.07641C14.0376 6.09677 14.0132 6.10695 13.9867 6.10695C13.9602 6.10695 13.9357 6.09677 13.9153 6.07641ZM14.2007 5.79347C14.1803 5.77311 14.1701 5.74868 14.1701 5.72222C14.1701 5.69576 14.1803 5.67133 14.2007 5.65097C14.2394 5.6123 14.3046 5.6123 14.3433 5.65097C14.3637 5.67133 14.3739 5.69576 14.3739 5.72222C14.3739 5.74868 14.3637 5.77311 14.3433 5.79347C14.3229 5.81382 14.2985 5.82196 14.272 5.82196C14.2455 5.82196 14.219 5.81179 14.2007 5.79347ZM14.486 5.50848C14.4656 5.48813 14.4554 5.4637 14.4554 5.43724C14.4554 5.41078 14.4656 5.38635 14.486 5.36599C14.5247 5.32732 14.5899 5.32732 14.6286 5.36599C14.649 5.38635 14.6572 5.41078 14.6572 5.43724C14.6572 5.4637 14.647 5.48813 14.6286 5.50848C14.6082 5.52884 14.5838 5.53698 14.5573 5.53698C14.5308 5.53698 14.5043 5.52884 14.486 5.50848ZM14.7693 5.2235C14.7305 5.18482 14.7305 5.11969 14.7693 5.08101C14.808 5.04233 14.8732 5.04233 14.9119 5.08101C14.9506 5.11969 14.9506 5.18279 14.9119 5.2235C14.8915 5.24386 14.8671 5.252 14.8406 5.252C14.8161 5.25403 14.7896 5.24386 14.7693 5.2235Z" fill="white"/>
<path d="M14.8462 15.7596C15.3651 15.7596 15.7857 15.3395 15.7857 14.8212C15.7857 14.303 15.3651 13.8828 14.8462 13.8828C14.3273 13.8828 13.9067 14.303 13.9067 14.8212C13.9067 15.3395 14.3273 15.7596 14.8462 15.7596Z" fill="white"/>
<path d="M5.16572 15.7616C5.6846 15.7616 6.10524 15.3414 6.10524 14.8232C6.10524 14.3049 5.6846 13.8848 5.16572 13.8848C4.64683 13.8848 4.2262 14.3049 4.2262 14.8232C4.2262 15.3414 4.64683 15.7616 5.16572 15.7616Z" fill="white"/>
<path d="M14.8546 6.08238C15.3734 6.08238 15.7941 5.66224 15.7941 5.14397C15.7941 4.62571 15.3734 4.20557 14.8546 4.20557C14.3357 4.20557 13.915 4.62571 13.915 5.14397C13.915 5.66224 14.3357 6.08238 14.8546 6.08238Z" fill="white"/>
<path d="M5.1413 6.06602C5.66018 6.06602 6.08082 5.64588 6.08082 5.12761C6.08082 4.60935 5.66018 4.18921 5.1413 4.18921C4.62242 4.18921 4.20178 4.60935 4.20178 5.12761C4.20178 5.64588 4.62242 6.06602 5.1413 6.06602Z" fill="white"/>
</svg>
