<svg width="20" height="20" viewBox="0 0 20 20" fill="none" xmlns="http://www.w3.org/2000/svg">
<circle cx="10" cy="10" r="10" fill="#627EEA"/>
<path opacity="0.85" d="M6 10.1122L9.99943 12.2886V4L6 10.1122Z" fill="white"/>
<path opacity="0.8" d="M9.99902 4V12.2886L13.9969 10.1122L9.99902 4Z" fill="#C0CBF6"/>
<path d="M9.99943 8.43677L6 10.1122L9.99943 12.2886L13.9973 10.1122L9.99943 8.43677Z" fill="#C0CBF6"/>
<path d="M9.99943 8.43677L6 10.1122L9.99943 12.2886L13.9973 10.1122L9.99943 8.43677Z" fill="#C0CBF6"/>
<path d="M9.99933 8.43677L9.99959 10.1122L9.99933 12.2886L13.9972 10.1122L9.99933 8.43677Z" fill="#C0CBF6"/>
<path d="M9.99933 8.43677L9.99959 10.1122L9.99933 12.2886L13.9972 10.1122L9.99933 8.43677Z" fill="#8197EE"/>
<path d="M6 10.8101L9.99943 15.9999V12.9865L6 10.8101Z" fill="#E7ECFC"/>
<path d="M9.99902 12.9865V15.9999L14 10.8101L9.99902 12.9865Z" fill="#C0CBF6"/>
</svg>
