<svg width="20" height="20" viewBox="0 0 20 20" fill="none" xmlns="http://www.w3.org/2000/svg">
<circle cx="10" cy="10" r="10" fill="#38775D"/>
<g clip-path="url(#clip0_739_1548)">
<path d="M7.52722 10.8467C7.87209 10.8467 8.20855 10.7317 8.48052 10.5215L6.29353 8.33446C5.76641 9.0158 5.89259 9.99714 6.57392 10.5243C6.84869 10.7317 7.18235 10.8467 7.52722 10.8467Z" fill="white"/>
<path d="M14.0321 9.28496C14.0321 8.94009 13.9172 8.60363 13.7069 8.33166L11.5199 10.5186C12.2012 11.0458 13.1797 10.9196 13.7069 10.2383C13.9172 9.96629 14.0321 9.62984 14.0321 9.28496Z" fill="white"/>
<path d="M15.134 6.90451L14.1667 7.87183C14.9462 8.80551 14.8228 10.1962 13.8891 10.9757C13.0704 11.6598 11.8816 11.6598 11.0629 10.9757L10.0002 12.0383L8.94035 10.9785C8.00668 11.7579 6.61598 11.6346 5.83651 10.7009C5.15237 9.88218 5.15237 8.69336 5.83651 7.87464L5.34023 7.37836L4.86919 6.90451C4.30001 7.84099 4 8.91766 4 10.014C4 13.3281 6.68607 16.0142 10.0002 16.0142C13.3143 16.0142 16.0004 13.3281 16.0004 10.014C16.0032 8.91766 15.7004 7.84099 15.134 6.90451Z" fill="white"/>
<path d="M14.3405 5.8727C12.0554 3.47542 8.25902 3.3857 5.86174 5.67082C5.79165 5.73812 5.72436 5.80541 5.65987 5.8727C5.51127 6.02971 5.37107 6.19234 5.23929 6.36337L10.0002 11.1271L14.7611 6.36337C14.6321 6.19234 14.4891 6.02971 14.3405 5.8727ZM10.0002 4.79883C11.4021 4.79883 12.7087 5.33997 13.69 6.32692L10.0002 10.0168L6.31036 6.32692C7.2917 5.33997 8.59828 4.79883 10.0002 4.79883Z" fill="white"/>
</g>
<defs>
<clipPath id="clip0_739_1548">
<rect width="12" height="12" fill="white" transform="translate(4 4)"/>
</clipPath>
</defs>
</svg>
