<svg width="20" height="20" viewBox="0 0 20 20" fill="none" xmlns="http://www.w3.org/2000/svg">
<circle cx="10" cy="10" r="10" fill="url(#paint0_linear_739_1511)"/>
<g clip-path="url(#clip0_739_1511)">
<path d="M13.4113 4C12.7259 3.99947 12.0683 4.27165 11.5829 4.75681C11.0974 5.24197 10.8238 5.90045 10.822 6.58771V9.45686C10.5553 9.47491 10.2827 9.48627 10 9.48627C9.71733 9.48627 9.446 9.49763 9.178 9.51368V6.58771C9.1671 5.90641 8.88953 5.25671 8.40519 4.77877C7.92084 4.30083 7.26854 4.03297 6.589 4.03297C5.90946 4.03297 5.25716 4.30083 4.77281 4.77877C4.28847 5.25671 4.0109 5.90641 4 6.58771V13.445C4.0109 14.1264 4.28847 14.7761 4.77281 15.254C5.25716 15.7319 5.90946 15.9998 6.589 15.9998C7.26854 15.9998 7.92084 15.7319 8.40519 15.254C8.88953 14.7761 9.1671 14.1264 9.178 13.445V10.5759C9.44467 10.5579 9.71733 10.5465 10 10.5465C10.2827 10.5465 10.554 10.5351 10.822 10.5191V13.445C10.8329 14.1264 11.1105 14.7761 11.5948 15.254C12.0792 15.7319 12.7315 15.9998 13.411 15.9998C14.0905 15.9998 14.7428 15.7319 15.2272 15.254C15.7115 14.7761 15.9891 14.1264 16 13.445V6.58771C15.9982 5.90056 15.7247 5.24218 15.2394 4.75704C14.754 4.27191 14.0966 3.99964 13.4113 4ZM6.58867 5.06022C6.99316 5.06004 7.38121 5.22077 7.66767 5.50713C7.95413 5.7935 8.11561 6.18211 8.11667 6.58771V9.62599C7.35919 9.73605 6.61948 9.94575 5.91667 10.2497C5.61216 10.3837 5.3255 10.5553 5.06333 10.7604V6.58771C5.06439 6.18258 5.2255 5.79436 5.51138 5.50808C5.79727 5.22179 6.18463 5.06075 6.58867 5.06022ZM8.11667 13.445C8.11667 13.8514 7.95568 14.2411 7.66913 14.5285C7.38257 14.8158 6.99392 14.9772 6.58867 14.9772C6.18342 14.9772 5.79476 14.8158 5.50821 14.5285C5.22165 14.2411 5.06067 13.8514 5.06067 13.445V12.7572C5.06067 12.1495 5.54067 11.574 6.34533 11.2156C6.91232 10.9704 7.50722 10.7959 8.11667 10.6962V13.445ZM13.4113 14.9725C13.0068 14.9727 12.6188 14.812 12.3323 14.5256C12.0459 14.2393 11.8844 13.8506 11.8833 13.445V10.4068C12.6408 10.2967 13.3805 10.087 14.0833 9.78308C14.3878 9.64907 14.6745 9.4775 14.9367 9.27236V13.445C14.9356 13.8502 14.7745 14.2384 14.4886 14.5247C14.2027 14.811 13.8154 14.972 13.4113 14.9725ZM13.6547 8.81311C13.0877 9.05838 12.4928 9.23283 11.8833 9.33252V6.58771C11.8833 6.18136 12.0443 5.79164 12.3309 5.5043C12.6174 5.21697 13.0061 5.05554 13.4113 5.05554C13.8166 5.05554 14.2052 5.21697 14.4918 5.5043C14.7783 5.79164 14.9393 6.18136 14.9393 6.58771V7.27559C14.9393 7.88057 14.4593 8.45613 13.6547 8.81311Z" fill="white"/>
</g>
<defs>
<linearGradient id="paint0_linear_739_1511" x1="1.26667" y1="18.5099" x2="18.667" y2="1.10994" gradientUnits="userSpaceOnUse">
<stop stop-color="#00AEE9"/>
<stop offset="1" stop-color="#69FABD"/>
</linearGradient>
<clipPath id="clip0_739_1511">
<rect width="12" height="12" fill="white" transform="translate(4 4)"/>
</clipPath>
</defs>
</svg>
