<svg width="20" height="20" viewBox="0 0 20 20" fill="none" xmlns="http://www.w3.org/2000/svg">
<circle cx="10" cy="10" r="10" fill="#EDEFF7"/>
<path d="M11.2628 7.69222C11.2628 5.97204 10.4079 4.49004 9.75306 4.00486C9.75306 4.00486 9.70758 3.9784 9.70758 4.04897C9.65301 7.37465 7.91587 8.28325 6.95181 9.49179C4.74173 12.297 6.79719 15.3669 8.88904 15.9314C10.0623 16.249 8.61619 15.3669 8.43429 13.5144C8.21601 11.2649 11.2628 9.55354 11.2628 7.69222Z" fill="#282E5B"/>
<path d="M12.4076 8.82937C12.3985 8.82055 12.3803 8.82055 12.3621 8.82937C12.3621 8.82937 12.3621 8.82937 12.353 8.83819C12.3167 9.2528 11.8437 10.1526 11.2525 10.973C9.24255 13.7605 10.3885 15.1014 11.0343 15.8248C11.4072 16.2482 11.0343 15.8248 11.971 15.3925C12.0438 15.3572 13.79 14.4574 13.981 12.4197C14.172 10.4349 12.8714 9.19105 12.4076 8.82937Z" fill="#059BDC"/>
</svg>
