<svg width="16" height="16" viewBox="0 0 16 16" fill="none" xmlns="http://www.w3.org/2000/svg">
<path d="M11.3013 5.3655C10.4823 4.5465 9.41134 4.1335 8.33334 4.1335V8.3335L5.36534 11.3015C7.00334 12.9395 9.66334 12.9395 11.3083 11.3015C12.9463 9.6635 12.9463 7.0035 11.3013 5.3655ZM8.33334 1.3335C4.46934 1.3335 1.33334 4.4695 1.33334 8.3335C1.33334 12.1975 4.46934 15.3335 8.33334 15.3335C12.1973 15.3335 15.3333 12.1975 15.3333 8.3335C15.3333 4.4695 12.1973 1.3335 8.33334 1.3335ZM8.33334 13.9335C5.23934 13.9335 2.73334 11.4275 2.73334 8.3335C2.73334 5.2395 5.23934 2.7335 8.33334 2.7335C11.4273 2.7335 13.9333 5.2395 13.9333 8.3335C13.9333 11.4275 11.4273 13.9335 8.33334 13.9335Z" fill="#C058FF"/>
</svg>
