<svg width="20" height="20" viewBox="0 0 20 20" fill="none" xmlns="http://www.w3.org/2000/svg">
<circle cx="10" cy="10" r="10" fill="url(#paint0_linear_729_1312)"/>
<path d="M5.94958 11.869C6.02198 11.7997 6.12154 11.7593 6.22714 11.7593H15.803C15.978 11.7593 16.0655 11.9614 15.9418 12.0798L14.0502 13.8902C13.9778 13.9595 13.8782 13.9999 13.7726 13.9999H4.19671C4.02173 13.9999 3.93423 13.7978 4.05793 13.6794L5.94958 11.869Z" fill="white"/>
<path d="M5.94982 5.10972C6.02525 5.04042 6.12481 5 6.22738 5H15.8033C15.9783 5 16.0658 5.20212 15.9421 5.3205L14.0504 7.13088C13.978 7.20017 13.8784 7.2406 13.7728 7.2406H4.19696C4.02197 7.2406 3.93448 7.03848 4.05817 6.9201L5.94982 5.10972Z" fill="white"/>
<path d="M14.0502 8.46787C13.9778 8.39858 13.8782 8.35815 13.7726 8.35815H4.19671C4.02173 8.35815 3.93423 8.56027 4.05793 8.67865L5.94958 10.489C6.02198 10.5583 6.12154 10.5988 6.22714 10.5988H15.803C15.978 10.5988 16.0655 10.3966 15.9418 10.2783L14.0502 8.46787Z" fill="white"/>
<defs>
<linearGradient id="paint0_linear_729_1312" x1="16.5625" y1="0.3125" x2="10" y2="20" gradientUnits="userSpaceOnUse">
<stop offset="0.0218611" stop-color="#00FFA3"/>
<stop offset="1" stop-color="#D724FD"/>
</linearGradient>
</defs>
</svg>
