<svg width="18" height="22" viewBox="0 0 18 22" fill="none" xmlns="http://www.w3.org/2000/svg">
<path fill-rule="evenodd" clip-rule="evenodd" d="M10.56 0.255098C10.8036 0.331708 11.0164 0.484035 11.1675 0.689925C11.3186 0.895814 11.4 1.14453 11.4 1.3999V7.3999H16.2C16.4195 7.3998 16.6348 7.45991 16.8226 7.57369C17.0103 7.68746 17.1632 7.85055 17.2646 8.04519C17.3661 8.23983 17.4123 8.45858 17.398 8.67762C17.3838 8.89666 17.3098 9.1076 17.184 9.2875L8.78402 21.2875C8.63783 21.4969 8.42862 21.6543 8.18683 21.7366C7.94504 21.8189 7.68329 21.822 7.43966 21.7453C7.19602 21.6686 6.98322 21.5161 6.83221 21.3101C6.6812 21.1041 6.59986 20.8553 6.60002 20.5999V14.5999H1.80002C1.58052 14.6 1.3652 14.5399 1.17748 14.4261C0.98977 14.3123 0.836859 14.1492 0.735393 13.9546C0.633926 13.76 0.587791 13.5412 0.602007 13.3222C0.616223 13.1031 0.690247 12.8922 0.816021 12.7123L9.21602 0.712298C9.36243 0.503242 9.57169 0.346313 9.81338 0.264309C10.0551 0.182306 10.3166 0.179499 10.56 0.256298V0.255098Z" fill="#E22440"/>
</svg>
