<svg width="20" height="20" viewBox="0 0 20 20" fill="none" xmlns="http://www.w3.org/2000/svg">
<path d="M16.5997 3.40039C14.8369 1.63756 12.493 0.666748 10 0.666748C7.50698 0.666748 5.16315 1.63756 3.40032 3.40039C1.63748 5.16323 0.666672 7.50706 0.666672 10.0001C0.666672 12.4931 1.63752 14.8369 3.40032 16.5998C5.16312 18.3626 7.50698 19.3334 10 19.3334C12.493 19.3334 14.8369 18.3626 16.5997 16.5998C18.3625 14.8369 19.3333 12.4931 19.3333 10.0001C19.3333 7.50706 18.3625 5.16326 16.5997 3.40039ZM10 9.41675C11.4474 9.41675 12.625 10.5943 12.625 12.0417C12.625 13.2404 11.8172 14.2533 10.7176 14.5662C10.6386 14.5887 10.5833 14.6598 10.5833 14.7419V15.2336C10.5833 15.5477 10.3419 15.818 10.0282 15.8328C9.69317 15.8485 9.41667 15.5816 9.41667 15.2501V14.7418C9.41667 14.6599 9.36177 14.5888 9.28298 14.5664C8.18806 14.255 7.38233 13.2498 7.37504 12.058C7.37311 11.7399 7.62321 11.4678 7.9412 11.4587C8.27119 11.4492 8.54167 11.7139 8.54167 12.0417C8.54167 12.8804 9.25323 13.5559 10.1042 13.4964C10.8226 13.4462 11.4045 12.8643 11.4547 12.1459C11.5141 11.2949 10.8386 10.5834 10 10.5834C8.55257 10.5834 7.37501 9.40585 7.37501 7.95842C7.37501 6.75977 8.18281 5.74689 9.28243 5.43393C9.36144 5.41144 9.41667 5.34038 9.41667 5.25824V4.76656C9.41667 4.45244 9.65806 4.18217 9.97182 4.1674C10.3068 4.15165 10.5833 4.41857 10.5833 4.75008V5.25835C10.5833 5.34027 10.6382 5.41136 10.717 5.43378C11.8119 5.74514 12.6177 6.7504 12.625 7.94212C12.6269 8.26022 12.3768 8.53238 12.0588 8.54149C11.7288 8.55097 11.4583 8.28628 11.4583 7.95842C11.4583 7.1198 10.7468 6.44423 9.89577 6.50373C9.1774 6.55393 8.59549 7.13588 8.54532 7.85425C8.48589 8.7053 9.16143 9.41675 10 9.41675Z" fill="#E22440"/>
</svg>
